<?xml version="1.0" encoding="UTF-8" standalone="no"?>
<!-- Created with Inkscape (http://www.inkscape.org/) -->

<svg
   width="148.64783mm"
   height="42.514256mm"
   viewBox="0 0 148.64783 42.514255"
   version="1.1"
   id="svg1"
   xmlns="http://www.w3.org/2000/svg"
   xmlns:svg="http://www.w3.org/2000/svg">
  <defs
     id="defs1" />
  <rect
     style="display:inline;fill:#ffffff;stroke-width:2.53076;stroke-opacity:0.989324"
     id="rect8"
     width="148.64783"
     height="42.514256"
     x="0"
     y="0" />
  <g
     id="layer1"
     transform="translate(-33.039701,-132.46564)">
    <path
       style="font-size:11.2889px;font-family:Lora;-inkscape-font-specification:Lora;letter-spacing:-0.291042px;baseline-shift:baseline;fill:#ffffff;stroke-width:3.1745;stroke-opacity:0.989324"
       d="m 39.065326,154.71631 v -0.35205 q 0.453931,-0.0214 0.621169,-0.18137 0.167237,-0.17069 0.179183,-0.45874 0.02389,-0.29871 0.02389,-0.6721 v -4.60872 q 0,-0.21337 0.01195,-0.4054 0.01195,-0.2027 0.02389,-0.36273 -0.21502,0.0107 -0.43004,0.0214 -0.21502,0.0107 -0.430039,0.0214 v -0.4694 q 0.66895,-0.0107 1.349846,-0.0214 0.692843,-0.0107 1.385684,0.0107 1.158718,0.0107 1.863506,0.24536 0.716733,0.22404 1.051209,0.65078 0.334475,0.41606 0.334475,1.01349 0.01195,0.41607 -0.179184,0.85347 -0.179183,0.42673 -0.66895,0.76812 -0.477822,0.34139 -1.385685,0.51208 0.238911,0.14936 0.418095,0.38406 0.179183,0.2347 0.406149,0.54409 l 0.812297,1.14151 q 0.203075,0.28804 0.394204,0.52275 0.191128,0.22403 0.441985,0.36272 0.250857,0.12803 0.621169,0.12803 v 0.35205 h -1.50514 q -0.346421,-0.27738 -0.585332,-0.55475 -0.226965,-0.27739 -0.477822,-0.62944 l -0.800351,-1.14151 q -0.155293,-0.22404 -0.358367,-0.51208 -0.191129,-0.29872 -0.441986,-0.50142 -0.191128,0.0107 -0.406148,0.0107 -0.203075,0 -0.406149,-0.0107 v 2.06966 q 0,0.28805 -0.01195,0.50142 0,0.2027 -0.02389,0.34138 0.143347,-0.0107 0.286693,-0.0107 0.143347,-0.0107 0.286694,-0.0214 0.143347,-0.0107 0.286693,-0.0107 v 0.4694 z m 2.60413,-3.73393 q 0.657006,-0.0214 1.146772,-0.19203 0.501713,-0.17069 0.788407,-0.54408 0.286693,-0.37339 0.286693,-0.98149 0,-0.4054 -0.1314,-0.70411 -0.119456,-0.30937 -0.382258,-0.51207 -0.262803,-0.2027 -0.668952,-0.29872 -0.406148,-0.10668 -0.955644,-0.10668 -0.441985,0 -0.621168,0.16002 -0.167237,0.16003 -0.191129,0.44808 -0.01195,0.27737 -0.01195,0.66143 v 2.04832 q 0.191129,0.0107 0.358366,0.0214 0.179184,0.0107 0.382258,0 z m 8.089753,3.73393 q -0.03584,-0.18136 -0.04779,-0.32005 -0.01195,-0.13869 -0.03584,-0.28805 -0.406149,0.36272 -0.883971,0.57609 -0.465876,0.2027 -0.991481,0.2027 -0.907861,0 -1.349847,-0.36272 -0.441985,-0.37339 -0.441985,-0.90681 0,-0.49075 0.334475,-0.8428 0.346421,-0.36272 0.883971,-0.58676 0.549495,-0.23471 1.182609,-0.34139 0.645061,-0.11735 1.242338,-0.10668 v -0.66144 q 0,-0.37339 -0.07167,-0.7041 -0.07167,-0.33073 -0.310584,-0.5441 -0.238911,-0.21337 -0.764515,-0.22403 -0.346421,-0.0107 -0.716733,0.11735 -0.358367,0.12802 -0.525604,0.43741 0.09556,0.0853 0.119456,0.2027 0.03584,0.10668 0.03584,0.2027 0,0.12801 -0.119455,0.29871 -0.119456,0.16002 -0.418094,0.14935 -0.250857,0 -0.382258,-0.14935 -0.131401,-0.16003 -0.131401,-0.3734 0,-0.36272 0.298639,-0.65077 0.310584,-0.28804 0.848134,-0.45873 0.537549,-0.17069 1.218445,-0.17069 1.003427,0 1.481249,0.48007 0.477822,0.46941 0.465876,1.49356 0,0.39473 0,0.80013 0,0.39473 -0.01195,0.80013 0,0.39473 0,0.80013 0,0.17069 -0.01195,0.34138 -0.01195,0.17069 -0.03584,0.38406 0.215019,-0.0107 0.418093,-0.0214 0.21502,-0.0107 0.430041,-0.0213 v 0.44806 z m -0.10751,-2.61374 q -0.406149,0.0107 -0.860079,0.096 -0.441985,0.0747 -0.824243,0.2347 -0.370312,0.16003 -0.609223,0.42674 -0.226966,0.25603 -0.21502,0.62943 0.02389,0.39472 0.286693,0.59742 0.274748,0.19203 0.64506,0.19203 0.489767,0 0.848134,-0.16002 0.370312,-0.17069 0.728678,-0.4694 -0.01195,-0.11736 -0.01195,-0.25604 0,-0.13869 0,-0.28805 0,-0.0533 0,-0.34139 0.01195,-0.28804 0.01195,-0.66143 z m 5.246718,2.78443 q -0.800352,0 -1.481248,-0.32005 -0.668951,-0.33072 -1.075099,-0.93881 -0.394204,-0.61876 -0.394204,-1.48291 0,-0.55475 0.226966,-1.07749 0.226965,-0.52275 0.633114,-0.93882 0.418094,-0.42673 0.991481,-0.67211 0.573386,-0.24536 1.266228,-0.24536 0.66895,0 1.158718,0.18136 0.501713,0.18136 0.776461,0.48007 0.274748,0.29872 0.274748,0.65077 0,0.23471 -0.143347,0.4054 -0.143347,0.16002 -0.418095,0.16002 -0.298638,0.0107 -0.430039,-0.16002 -0.119456,-0.18136 -0.119456,-0.32006 0,-0.10668 0.03584,-0.21337 0.03584,-0.11734 0.143345,-0.21335 -0.09556,-0.25605 -0.334475,-0.3734 -0.238911,-0.12802 -0.501713,-0.16003 -0.250857,-0.0426 -0.418094,-0.0426 -0.812297,0 -1.373738,0.58676 -0.549495,0.57609 -0.549495,1.68559 0,0.71479 0.250856,1.26954 0.262803,0.55475 0.728679,0.8748 0.465876,0.30939 1.075099,0.30939 0.561441,0 1.0751,-0.26671 0.513659,-0.26671 0.800351,-0.65078 l 0.310585,0.21337 q -0.310585,0.44808 -0.75257,0.72546 -0.43004,0.27737 -0.895916,0.40539 -0.453931,0.12802 -0.86008,0.12802 z m 6.966865,-0.49074 q 0.370312,0 0.513659,-0.16003 0.143345,-0.17069 0.167237,-0.45873 0.02389,-0.29872 0.02389,-0.68278 v -1.49357 q 0,-0.91748 -0.334475,-1.37622 -0.32253,-0.45873 -1.027318,-0.44806 -0.441985,0.0107 -0.872024,0.19203 -0.418095,0.18136 -0.680897,0.4694 v 3.14717 q 0,0.21336 -0.01195,0.38406 -0.01195,0.16002 -0.04779,0.34138 0.191128,-0.0107 0.370312,-0.0107 0.191129,-0.0107 0.382258,-0.0214 v 0.43741 h -2.436893 v -0.32005 q 0.370313,0 0.513659,-0.16002 0.143346,-0.17069 0.167237,-0.45874 0.03584,-0.29871 0.03584,-0.68277 v -5.04613 q 0,-0.1707 0,-0.32006 0.01195,-0.16002 0.03584,-0.37339 -0.215021,0.0107 -0.430041,0.0214 -0.203074,0.0107 -0.418093,0.0214 v -0.44807 q 0.525603,0 0.812297,-0.0427 0.298638,-0.0426 0.441985,-0.10668 0.155292,-0.064 0.238911,-0.13869 h 0.346421 v 3.25384 q 0.262802,-0.2027 0.585332,-0.35205 0.334476,-0.16002 0.680896,-0.25604 0.358367,-0.096 0.692842,-0.096 1.039263,0 1.493194,0.58676 0.465877,0.57609 0.477822,1.80294 l 0.01195,1.98432 q 0,0.21336 -0.01195,0.38406 0,0.16002 -0.03584,0.34138 0.191129,-0.0107 0.370312,-0.0107 0.191129,-0.0107 0.382258,-0.0213 v 0.4374 h -2.436892 z m 6.644348,0.32005 q -0.03584,-0.18136 -0.04778,-0.32005 -0.01195,-0.13869 -0.03584,-0.28805 -0.406148,0.36272 -0.88397,0.57609 -0.465877,0.2027 -0.99148,0.2027 -0.907863,0 -1.349848,-0.36272 -0.441985,-0.37339 -0.441985,-0.90681 0,-0.49075 0.334475,-0.8428 0.346421,-0.36272 0.883971,-0.58676 0.549495,-0.23471 1.18261,-0.34139 0.645059,-0.11735 1.242336,-0.10668 v -0.66144 q 0,-0.37339 -0.07167,-0.7041 -0.07167,-0.33073 -0.310583,-0.5441 -0.238911,-0.21337 -0.764516,-0.22403 -0.346421,-0.0107 -0.716733,0.11735 -0.358366,0.12802 -0.525605,0.43741 0.09556,0.0853 0.119456,0.2027 0.03584,0.10668 0.03584,0.2027 0,0.12801 -0.119455,0.29871 -0.119456,0.16002 -0.418095,0.14935 -0.250856,0 -0.382257,-0.14935 -0.131401,-0.16003 -0.131401,-0.3734 0,-0.36272 0.298638,-0.65077 0.310585,-0.28804 0.848134,-0.45873 0.537551,-0.17069 1.218447,-0.17069 1.003426,0 1.481248,0.48007 0.477822,0.46941 0.465876,1.49356 0,0.39473 0,0.80013 0,0.39473 -0.01195,0.80013 0,0.39473 0,0.80013 0,0.17069 -0.01195,0.34138 -0.01195,0.17069 -0.03584,0.38406 0.215019,-0.0107 0.418095,-0.0214 0.215019,-0.0107 0.430039,-0.0213 v 0.44806 z m -0.10751,-2.61374 q -0.406148,0.0107 -0.860079,0.096 -0.441986,0.0747 -0.824244,0.2347 -0.370312,0.16003 -0.609223,0.42674 -0.226965,0.25603 -0.215019,0.62943 0.02389,0.39472 0.286693,0.59742 0.274748,0.19203 0.64506,0.19203 0.489767,0 0.848133,-0.16002 0.370313,-0.17069 0.728679,-0.4694 -0.01195,-0.11736 -0.01195,-0.25604 0,-0.13869 0,-0.28805 0,-0.0533 0,-0.34139 0.01195,-0.28804 0.01195,-0.66143 z m 4.458323,2.64575 -1.708213,-3.47789 q -0.191129,-0.40539 -0.298639,-0.69344 -0.10751,-0.28804 -0.155293,-0.48007 -0.03584,-0.19203 -0.04779,-0.30938 l -0.513659,0.032 v -0.4374 h 2.197981 v 0.32006 q -0.358366,0 -0.465876,0.17069 -0.09556,0.16002 -0.02389,0.4374 0.07167,0.26671 0.21502,0.57609 l 0.919807,1.87763 q 0.09556,0.18136 0.179184,0.38406 0.09556,0.19203 0.179183,0.4054 h 0.01195 q 0.05972,-0.16002 0.131401,-0.34139 0.08362,-0.18136 0.143347,-0.35206 l 0.955644,-2.33636 q 0.09556,-0.25604 0.203074,-0.44807 0.10751,-0.19203 0.155293,-0.28805 l -0.764516,0.032 v -0.4374 h 1.887398 v 0.32006 q -0.262803,0 -0.441986,0.16002 -0.179183,0.16002 -0.346421,0.48007 -0.155293,0.32006 -0.370312,0.80013 l -1.564867,3.6059 z"
       id="text1"
       aria-label="Rachav" />
    <g
       id="text3"
       style="font-size:6.35px;font-family:Lora;-inkscape-font-specification:Lora;letter-spacing:-0.291042px;fill:#ffffff;stroke-width:3;stroke-opacity:0.989324"
       aria-label="So she let them down by a rope through the window,&#10;for the house she lived in was part of the city wall."
       transform="translate(0.67690083,1.5075844)">
      <path
         d="m 41.394082,159.70303 q -0.01905,-0.3048 -0.14605,-0.57785 -0.127,-0.27305 -0.3683,-0.4445 -0.2413,-0.17145 -0.61595,-0.17145 -0.3937,0 -0.60325,0.22225 -0.20955,0.22225 -0.20955,0.5207 0,0.2667 0.1524,0.45085 0.1524,0.1778 0.3937,0.3175 0.24765,0.13335 0.5207,0.26035 0.2413,0.10795 0.4826,0.23495 0.2413,0.12065 0.43815,0.2794 0.19685,0.15875 0.31115,0.381 0.12065,0.2159 0.12065,0.5207 0,0.34925 -0.1778,0.6223 -0.17145,0.27305 -0.50165,0.4318 -0.3302,0.1524 -0.80645,0.1524 -0.28575,0 -0.59055,-0.0825 -0.3048,-0.0825 -0.53975,-0.2413 l 0.03175,0.27305 h -0.3302 l -0.0381,-1.35255 h 0.24765 q 0.03175,0.5588 0.38735,0.8509 0.3556,0.28575 0.85725,0.28575 0.24765,0 0.4572,-0.0889 0.20955,-0.0952 0.3302,-0.27305 0.127,-0.1778 0.127,-0.4318 0,-0.28575 -0.1524,-0.47625 -0.1524,-0.1905 -0.3937,-0.3302 -0.2413,-0.1397 -0.51435,-0.2667 -0.2413,-0.10795 -0.47625,-0.2286 -0.23495,-0.12065 -0.4318,-0.27305 -0.1905,-0.15875 -0.31115,-0.37465 -0.1143,-0.2159 -0.1143,-0.5207 0,-0.1651 0.05715,-0.3556 0.05715,-0.1905 0.19685,-0.36195 0.14605,-0.1778 0.3937,-0.28575 0.254,-0.1143 0.64135,-0.1143 0.2413,0 0.53975,0.0699 0.3048,0.0635 0.56515,0.254 l -0.0254,-0.27305 h 0.32385 v 1.397 z m 2.318804,3.2004 q -0.4445,0 -0.80645,-0.2032 -0.36195,-0.20955 -0.57785,-0.5715 -0.20955,-0.3683 -0.20955,-0.8382 0,-0.50165 0.20955,-0.9017 0.20955,-0.40005 0.5715,-0.62865 0.36195,-0.23495 0.8128,-0.23495 0.4445,0 0.80645,0.2159 0.36195,0.20955 0.57785,0.5715 0.2159,0.36195 0.2159,0.8255 0,0.48895 -0.2159,0.89535 -0.20955,0.40005 -0.5715,0.635 -0.36195,0.23495 -0.8128,0.23495 z m 0.0508,-0.254 q 0.33655,0 0.5334,-0.1905 0.19685,-0.1905 0.2794,-0.4953 0.0889,-0.3048 0.0889,-0.64135 0,-0.28575 -0.05715,-0.5588 -0.0508,-0.2794 -0.1651,-0.50165 -0.1143,-0.2286 -0.29845,-0.36195 -0.1778,-0.13335 -0.4318,-0.13335 -0.3302,0 -0.53975,0.1905 -0.20955,0.1905 -0.31115,0.4953 -0.09525,0.3048 -0.09525,0.65405 0,0.3937 0.10795,0.7493 0.10795,0.34925 0.3302,0.5715 0.22225,0.22225 0.5588,0.22225 z m 4.478864,0.254 q -0.3175,0 -0.56515,-0.0889 -0.24765,-0.0825 -0.4064,-0.1905 l 0.0254,0.22225 h -0.2667 l -0.0381,-1.0922 h 0.19685 q 0.0127,0.26035 0.14605,0.4699 0.13335,0.2032 0.3429,0.3175 0.20955,0.1143 0.45085,0.1143 0.1651,0 0.32385,-0.0508 0.15875,-0.0572 0.2667,-0.1651 0.10795,-0.1143 0.10795,-0.28575 0,-0.1778 -0.10795,-0.2921 -0.1016,-0.12065 -0.27305,-0.20955 -0.17145,-0.0889 -0.3683,-0.1651 -0.1905,-0.0762 -0.381,-0.15875 -0.1905,-0.0825 -0.3556,-0.19685 -0.15875,-0.1143 -0.254,-0.2794 -0.09525,-0.1651 -0.09525,-0.4064 0,-0.13335 0.0508,-0.2921 0.0508,-0.15875 0.17145,-0.29845 0.12065,-0.14605 0.3302,-0.23495 0.20955,-0.0952 0.5334,-0.0952 0.17145,0 0.381,0.0572 0.20955,0.0572 0.4064,0.2159 l -0.0127,-0.2413 h 0.2667 v 1.11125 h -0.2032 q -0.0127,-0.22225 -0.1016,-0.42545 -0.0889,-0.20955 -0.26035,-0.3429 -0.17145,-0.1397 -0.4445,-0.1397 -0.2921,0 -0.4572,0.14605 -0.1651,0.14605 -0.1651,0.33655 0,0.19685 0.12065,0.3302 0.127,0.127 0.32385,0.22225 0.19685,0.0952 0.4191,0.18415 0.2413,0.1016 0.4699,0.22225 0.2286,0.12065 0.37465,0.3048 0.14605,0.1778 0.14605,0.46355 0,0.3175 -0.1651,0.52705 -0.15875,0.20955 -0.41275,0.3048 -0.24765,0.1016 -0.5207,0.1016 z m 3.385604,-0.2921 q 0.19685,0 0.27305,-0.0953 0.0762,-0.1016 0.0889,-0.27305 0.0127,-0.1778 0.0127,-0.4064 v -0.889 q 0,-0.5461 -0.1778,-0.81915 -0.17145,-0.27305 -0.5461,-0.2667 -0.23495,0.006 -0.46355,0.1143 -0.22225,0.10795 -0.36195,0.2794 v 1.87325 q 0,0.127 -0.0063,0.2286 -0.0064,0.0953 -0.0254,0.2032 0.1016,-0.006 0.19685,-0.006 0.1016,-0.006 0.2032,-0.0127 v 0.26035 h -1.2954 v -0.1905 q 0.19685,0 0.27305,-0.0953 0.0762,-0.1016 0.0889,-0.27305 0.01905,-0.1778 0.01905,-0.4064 v -3.00355 q 0,-0.1016 0,-0.1905 0.0063,-0.0953 0.01905,-0.22225 -0.1143,0.006 -0.2286,0.0127 -0.10795,0.006 -0.22225,0.0127 v -0.2667 q 0.2794,0 0.4318,-0.0254 0.15875,-0.0254 0.23495,-0.0635 0.08255,-0.0381 0.127,-0.0825 h 0.18415 v 1.93675 q 0.1397,-0.12065 0.31115,-0.20955 0.1778,-0.0952 0.36195,-0.1524 0.1905,-0.0572 0.3683,-0.0572 0.55245,0 0.79375,0.34925 0.24765,0.3429 0.254,1.07315 l 0.0063,1.1811 q 0,0.127 -0.0063,0.2286 0,0.0953 -0.01905,0.2032 0.1016,-0.006 0.19685,-0.006 0.1016,-0.006 0.2032,-0.0127 v 0.26035 h -1.2954 z m 3.010963,0.2921 q -0.43815,0 -0.79375,-0.2032 -0.34925,-0.20955 -0.55245,-0.5842 -0.2032,-0.381 -0.2032,-0.89535 0,-0.4445 0.19685,-0.83185 0.2032,-0.38735 0.56515,-0.6223 0.36195,-0.2413 0.8382,-0.2413 0.2667,0 0.4953,0.0889 0.23495,0.0825 0.41275,0.26035 0.1778,0.17145 0.2794,0.43815 0.1016,0.26035 0.1016,0.61595 l -2.2352,0.0381 q 0,0.4826 0.1016,0.8509 0.10795,0.36195 0.3429,0.56515 0.23495,0.19685 0.60325,0.19685 0.19685,0 0.40005,-0.0699 0.20955,-0.0699 0.38735,-0.1905 0.1778,-0.12065 0.28575,-0.2667 l 0.1524,0.127 q -0.17145,0.2667 -0.41275,0.42545 -0.2413,0.15875 -0.4953,0.2286 -0.254,0.0698 -0.4699,0.0698 z m -0.8763,-2.20345 h 1.61925 q 0,-0.2286 -0.06985,-0.43815 -0.0635,-0.2159 -0.2159,-0.34925 -0.1524,-0.1397 -0.40005,-0.1397 -0.3683,0 -0.61595,0.22225 -0.2413,0.2159 -0.3175,0.70485 z m 3.805769,1.91135 q 0.19685,0 0.27305,-0.0953 0.0762,-0.1016 0.0889,-0.27305 0.0127,-0.1778 0.0127,-0.4064 v -3.00355 q 0,-0.1016 0,-0.1905 0.0063,-0.0953 0.01905,-0.22225 -0.1143,0.006 -0.2286,0.0127 -0.10795,0.006 -0.22225,0.0127 v -0.2667 q 0.2794,0 0.4318,-0.0254 0.15875,-0.0254 0.23495,-0.0635 0.08255,-0.0381 0.127,-0.0825 h 0.18415 l 0.0063,4.12115 q 0,0.127 -0.0063,0.2286 -0.0064,0.0953 -0.0254,0.2032 0.1016,-0.006 0.19685,-0.006 0.1016,-0.006 0.2032,-0.0127 v 0.26035 h -1.2954 z m 3.036353,0.2921 q -0.43815,0 -0.79375,-0.2032 -0.34925,-0.20955 -0.55245,-0.5842 -0.2032,-0.381 -0.2032,-0.89535 0,-0.4445 0.19685,-0.83185 0.2032,-0.38735 0.56515,-0.6223 0.36195,-0.2413 0.8382,-0.2413 0.2667,0 0.4953,0.0889 0.23495,0.0825 0.41275,0.26035 0.1778,0.17145 0.2794,0.43815 0.1016,0.26035 0.1016,0.61595 l -2.2352,0.0381 q 0,0.4826 0.1016,0.8509 0.10795,0.36195 0.3429,0.56515 0.23495,0.19685 0.60325,0.19685 0.19685,0 0.40005,-0.0699 0.20955,-0.0699 0.38735,-0.1905 0.1778,-0.12065 0.28575,-0.2667 l 0.1524,0.127 q -0.17145,0.2667 -0.41275,0.42545 -0.2413,0.15875 -0.4953,0.2286 -0.254,0.0698 -0.4699,0.0698 z m -0.8763,-2.20345 h 1.61925 q 0,-0.2286 -0.06985,-0.43815 -0.0635,-0.2159 -0.2159,-0.34925 -0.1524,-0.1397 -0.40005,-0.1397 -0.3683,0 -0.61595,0.22225 -0.2413,0.2159 -0.3175,0.70485 z m 3.639607,2.20345 q -0.14605,0 -0.29845,-0.0444 -0.1524,-0.0381 -0.28575,-0.15875 -0.127,-0.12065 -0.2032,-0.34925 -0.0762,-0.23495 -0.0762,-0.61595 l 0.0127,-1.8415 -0.48895,0.006 v -0.27305 q 0.1651,-0.006 0.33655,-0.12065 0.17145,-0.12065 0.3048,-0.32385 0.1397,-0.2032 0.1905,-0.4445 h 0.2159 v 0.889 h 1.0668 v 0.24765 l -1.0668,0.0127 -0.0127,1.7653 q 0,0.28575 0.04445,0.48895 0.0508,0.19685 0.15875,0.29845 0.10795,0.1016 0.2794,0.1016 0.1778,0 0.3302,-0.1016 0.15875,-0.1016 0.2794,-0.2794 l 0.17145,0.1397 q -0.1397,0.20955 -0.2794,0.3302 -0.13335,0.12065 -0.26035,0.1778 -0.127,0.0635 -0.23495,0.0762 -0.10795,0.019 -0.18415,0.019 z m 3.545414,0 q -0.14605,0 -0.29845,-0.0444 -0.1524,-0.0381 -0.28575,-0.15875 -0.127,-0.12065 -0.2032,-0.34925 -0.0762,-0.23495 -0.0762,-0.61595 l 0.0127,-1.8415 -0.48895,0.006 v -0.27305 q 0.1651,-0.006 0.33655,-0.12065 0.17145,-0.12065 0.3048,-0.32385 0.1397,-0.2032 0.1905,-0.4445 h 0.2159 v 0.889 h 1.0668 v 0.24765 l -1.0668,0.0127 -0.0127,1.7653 q 0,0.28575 0.04445,0.48895 0.0508,0.19685 0.15875,0.29845 0.10795,0.1016 0.2794,0.1016 0.1778,0 0.3302,-0.1016 0.15875,-0.1016 0.2794,-0.2794 l 0.17145,0.1397 q -0.1397,0.20955 -0.2794,0.3302 -0.13335,0.12065 -0.26035,0.1778 -0.127,0.0635 -0.23495,0.0762 -0.10795,0.019 -0.18415,0.019 z m 3.010953,-0.2921 q 0.19685,0 0.27305,-0.0953 0.0762,-0.1016 0.0889,-0.27305 0.0127,-0.1778 0.0127,-0.4064 v -0.889 q 0,-0.5461 -0.1778,-0.81915 -0.17145,-0.27305 -0.5461,-0.2667 -0.23495,0.006 -0.46355,0.1143 -0.22225,0.10795 -0.36195,0.2794 v 1.87325 q 0,0.127 -0.0064,0.2286 -0.0063,0.0953 -0.0254,0.2032 0.1016,-0.006 0.19685,-0.006 0.1016,-0.006 0.2032,-0.0127 v 0.26035 h -1.2954 v -0.1905 q 0.19685,0 0.27305,-0.0953 0.0762,-0.1016 0.0889,-0.27305 0.01905,-0.1778 0.01905,-0.4064 v -3.00355 q 0,-0.1016 0,-0.1905 0.0064,-0.0953 0.01905,-0.22225 -0.1143,0.006 -0.2286,0.0127 -0.10795,0.006 -0.22225,0.0127 v -0.2667 q 0.2794,0 0.4318,-0.0254 0.15875,-0.0254 0.23495,-0.0635 0.08255,-0.0381 0.127,-0.0825 h 0.18415 v 1.93675 q 0.1397,-0.12065 0.31115,-0.20955 0.1778,-0.0952 0.36195,-0.1524 0.1905,-0.0572 0.3683,-0.0572 0.55245,0 0.79375,0.34925 0.24765,0.3429 0.254,1.07315 l 0.0064,1.1811 q 0,0.127 -0.0064,0.2286 0,0.0953 -0.01905,0.2032 0.1016,-0.006 0.19685,-0.006 0.1016,-0.006 0.2032,-0.0127 v 0.26035 h -1.2954 z m 3.010963,0.2921 q -0.43815,0 -0.79375,-0.2032 -0.34925,-0.20955 -0.55245,-0.5842 -0.2032,-0.381 -0.2032,-0.89535 0,-0.4445 0.19685,-0.83185 0.2032,-0.38735 0.56515,-0.6223 0.36195,-0.2413 0.8382,-0.2413 0.2667,0 0.4953,0.0889 0.23495,0.0825 0.41275,0.26035 0.1778,0.17145 0.2794,0.43815 0.1016,0.26035 0.1016,0.61595 l -2.2352,0.0381 q 0,0.4826 0.1016,0.8509 0.10795,0.36195 0.3429,0.56515 0.23495,0.19685 0.60325,0.19685 0.19685,0 0.40005,-0.0699 0.20955,-0.0699 0.38735,-0.1905 0.1778,-0.12065 0.28575,-0.2667 l 0.1524,0.127 q -0.17145,0.2667 -0.41275,0.42545 -0.2413,0.15875 -0.4953,0.2286 -0.254,0.0698 -0.4699,0.0698 z m -0.8763,-2.20345 h 1.61925 q 0,-0.2286 -0.06985,-0.43815 -0.0635,-0.2159 -0.2159,-0.34925 -0.1524,-0.1397 -0.40005,-0.1397 -0.3683,0 -0.61595,0.22225 -0.2413,0.2159 -0.3175,0.70485 z m 2.490258,2.10185 v -0.1905 q 0.19685,0 0.27305,-0.0953 0.0762,-0.1016 0.0889,-0.27305 0.0127,-0.1778 0.0127,-0.4064 v -1.4478 q 0,-0.1016 0,-0.2032 0.0063,-0.1016 0.0254,-0.20955 -0.1143,0.006 -0.2286,0.0127 -0.10795,0.006 -0.22225,0.0127 v -0.2667 q 0.2794,0 0.4191,-0.0254 0.14605,-0.0254 0.2159,-0.0635 0.06985,-0.0381 0.1143,-0.0825 h 0.18415 q 0.0127,0.0635 0.0127,0.14605 0.0063,0.0825 0.0127,0.1905 0.1905,-0.1651 0.43815,-0.2667 0.24765,-0.10795 0.4953,-0.10795 0.3175,0 0.5334,0.1143 0.2159,0.1143 0.33655,0.31115 0.2159,-0.1778 0.4953,-0.29845 0.28575,-0.127 0.5588,-0.127 0.55245,0 0.8128,0.33655 0.26035,0.3302 0.24765,1.08585 l -0.0063,1.1811 q 0,0.127 -0.0063,0.2286 0,0.0953 -0.01905,0.2032 0.1016,-0.006 0.19685,-0.006 0.1016,-0.006 0.2032,-0.0127 v 0.26035 h -1.2954 v -0.1905 q 0.19685,0 0.27305,-0.0953 0.0762,-0.1016 0.0889,-0.27305 0.0127,-0.1778 0.0127,-0.4064 v -0.889 q 0,-0.5461 -0.1778,-0.81915 -0.17145,-0.27305 -0.5461,-0.2667 -0.19685,0 -0.3937,0.0889 -0.19685,0.0889 -0.3429,0.22225 0.03175,0.1016 0.04445,0.22225 0.01905,0.1143 0.01905,0.2413 -0.0063,0.3683 -0.0063,0.74295 0,0.37465 -0.0064,0.7493 0,0.127 -0.0063,0.2286 0,0.0953 -0.01905,0.2032 0.1016,-0.006 0.19685,-0.006 0.1016,-0.006 0.2032,-0.0127 v 0.26035 h -1.2954 v -0.1905 q 0.19685,0 0.2667,-0.0953 0.0762,-0.1016 0.0889,-0.27305 0.01905,-0.1778 0.01905,-0.4064 l 0.0063,-0.889 q 0.0063,-0.5461 -0.15875,-0.8255 -0.1651,-0.2794 -0.53975,-0.27305 -0.19685,0 -0.38735,0.0889 -0.1905,0.0825 -0.32385,0.2159 0,0.0762 0,0.1651 0.0064,0.0825 0.0064,0.1778 v 1.63195 q 0,0.127 -0.0064,0.2286 0,0.0953 -0.01905,0.2032 0.1016,-0.006 0.19685,-0.006 0.1016,-0.006 0.2032,-0.0127 v 0.26035 z m 8.123762,0.1016 q -0.38735,0 -0.6985,-0.1905 -0.31115,-0.19685 -0.4953,-0.5588 -0.1778,-0.36195 -0.1778,-0.8509 0,-0.5207 0.20955,-0.92075 0.20955,-0.40005 0.57785,-0.62865 0.37465,-0.2286 0.84455,-0.2286 0.20955,0 0.41275,0.0572 0.20955,0.0508 0.3302,0.12065 v -0.86995 q 0,-0.1016 0,-0.1905 0.0063,-0.0953 0.01905,-0.22225 -0.1143,0.006 -0.2286,0.0127 -0.10795,0.006 -0.22225,0.0127 v -0.2667 q 0.2794,0 0.4318,-0.0254 0.1524,-0.0254 0.2286,-0.0635 0.08255,-0.0381 0.127,-0.0825 h 0.18415 v 4.12115 q 0,0.1016 -0.0063,0.2032 -0.0063,0.1016 -0.01905,0.2286 0.1143,-0.006 0.22225,-0.0127 0.1143,-0.006 0.2286,-0.0127 v 0.2667 h -0.90805 q -0.01905,-0.0952 -0.03175,-0.17145 -0.0063,-0.0825 -0.0127,-0.15875 -0.1778,0.19685 -0.43815,0.3175 -0.26035,0.1143 -0.57785,0.1143 z m 0.2286,-0.31115 q 0.20955,0 0.4191,-0.12065 0.2159,-0.12065 0.3556,-0.29845 -0.0063,-0.0762 -0.0063,-0.15875 0,-0.0889 0,-0.1905 l 0.0063,-1.8288 q -0.1524,-0.1143 -0.33655,-0.1651 -0.1778,-0.0572 -0.3683,-0.0572 -0.3175,0 -0.55245,0.18415 -0.23495,0.18415 -0.3556,0.51435 -0.12065,0.3302 -0.10795,0.7747 0.0127,0.38735 0.12065,0.69215 0.1143,0.3048 0.3175,0.4826 0.20955,0.17145 0.508,0.17145 z m 3.493556,0.31115 q -0.4445,0 -0.80645,-0.2032 -0.36195,-0.20955 -0.57785,-0.5715 -0.20955,-0.3683 -0.20955,-0.8382 0,-0.50165 0.20955,-0.9017 0.20955,-0.40005 0.5715,-0.62865 0.36195,-0.23495 0.8128,-0.23495 0.4445,0 0.80645,0.2159 0.36195,0.20955 0.57785,0.5715 0.2159,0.36195 0.2159,0.8255 0,0.48895 -0.2159,0.89535 -0.20955,0.40005 -0.5715,0.635 -0.36195,0.23495 -0.8128,0.23495 z m 0.0508,-0.254 q 0.33655,0 0.5334,-0.1905 0.19685,-0.1905 0.2794,-0.4953 0.0889,-0.3048 0.0889,-0.64135 0,-0.28575 -0.05715,-0.5588 -0.0508,-0.2794 -0.1651,-0.50165 -0.1143,-0.2286 -0.29845,-0.36195 -0.1778,-0.13335 -0.4318,-0.13335 -0.3302,0 -0.53975,0.1905 -0.20955,0.1905 -0.31115,0.4953 -0.09525,0.3048 -0.09525,0.65405 0,0.3937 0.10795,0.7493 0.10795,0.34925 0.3302,0.5715 0.22225,0.22225 0.5588,0.22225 z m 2.826799,0.17145 -0.83185,-2.4384 q -0.04445,-0.13335 -0.08255,-0.2286 -0.03175,-0.0952 -0.0508,-0.1651 -0.01905,-0.0699 -0.03175,-0.12065 l -0.33655,0.019 v -0.26035 h 1.3462 v 0.1905 q -0.28575,0.006 -0.3175,0.19685 -0.0254,0.18415 0.0762,0.48895 l 0.2921,0.889 q 0.0508,0.1524 0.1016,0.31115 0.0508,0.1524 0.1016,0.3048 0.05715,-0.17145 0.1143,-0.3429 0.0635,-0.1778 0.12065,-0.3556 l 0.56515,-1.68275 h 0.26035 l 0.64135,1.84785 q 0.0508,0.1397 0.1016,0.28575 0.0508,0.14605 0.1016,0.2921 0.0508,-0.1397 0.09525,-0.27305 0.0508,-0.1397 0.09525,-0.2794 l 0.4191,-1.2065 q 0.04445,-0.127 0.0889,-0.2413 0.04445,-0.1143 0.1016,-0.18415 l -0.3683,0.019 v -0.26035 h 1.1049 v 0.1905 q -0.1651,0.006 -0.27305,0.0445 -0.1016,0.0381 -0.17145,0.1016 -0.06985,0.0635 -0.1143,0.1524 -0.04445,0.0889 -0.08255,0.2032 l -0.9144,2.5019 h -0.254 l -0.60325,-1.73355 q -0.0381,-0.1143 -0.0762,-0.22225 -0.0381,-0.1143 -0.0762,-0.22225 -0.0381,-0.1143 -0.0762,-0.22225 -0.0381,0.10795 -0.0762,0.22225 -0.0381,0.10795 -0.0762,0.22225 -0.0381,0.10795 -0.0762,0.22225 l -0.5969,1.73355 z m 3.703111,-0.019 v -0.1905 q 0.19685,0 0.27305,-0.0953 0.0762,-0.1016 0.0889,-0.27305 0.0127,-0.1778 0.0127,-0.4064 l 0.0063,-1.4478 q 0,-0.1016 0,-0.2032 0.0063,-0.1016 0.0254,-0.20955 -0.1143,0.006 -0.2286,0.0127 -0.10795,0.006 -0.22225,0.0127 v -0.2667 q 0.2794,0 0.4191,-0.0254 0.14605,-0.0254 0.2159,-0.0635 0.06985,-0.0381 0.1143,-0.0825 h 0.18415 q 0.0063,0.0444 0.0063,0.1016 0.0063,0.0572 0.0127,0.127 0.0063,0.0699 0.0063,0.15875 0.1397,-0.12065 0.3048,-0.2159 0.17145,-0.0952 0.3556,-0.1524 0.1905,-0.0572 0.37465,-0.0572 0.55245,0 0.80645,0.34925 0.254,0.3429 0.254,1.07315 v 1.1811 q 0,0.127 -0.0063,0.2286 0,0.0953 -0.01905,0.2032 0.1016,-0.006 0.19685,-0.006 0.1016,-0.006 0.2032,-0.0127 v 0.26035 h -1.2954 v -0.1905 q 0.19685,0 0.27305,-0.0953 0.0762,-0.1016 0.0889,-0.27305 0.0127,-0.1778 0.0127,-0.4064 v -0.889 q -0.0063,-0.5461 -0.18415,-0.8255 -0.17145,-0.2794 -0.5461,-0.27305 -0.2286,0.006 -0.45085,0.12065 -0.2159,0.1143 -0.36195,0.2921 0.0063,0.0508 0.0063,0.1143 0,0.0635 0,0.13335 l -0.0063,1.61925 q 0,0.127 -0.0063,0.2286 0,0.0953 -0.01905,0.2032 0.1016,-0.006 0.19685,-0.006 0.1016,-0.006 0.2032,-0.0127 v 0.26035 z m 5.145625,-3.96875 q 0,-0.1016 0,-0.1905 0.0063,-0.0953 0.01905,-0.22225 -0.1143,0.006 -0.2286,0.0127 -0.10795,0.006 -0.22225,0.0127 v -0.2667 q 0.2794,0 0.4318,-0.0254 0.15875,-0.0254 0.23495,-0.0635 0.08255,-0.0381 0.127,-0.0825 h 0.18415 v 1.8923 q 0.1778,-0.1778 0.4191,-0.27305 0.24765,-0.1016 0.53975,-0.1016 0.406403,0 0.730253,0.19685 0.3302,0.19685 0.5207,0.5588 0.1905,0.36195 0.1905,0.85725 0,0.53975 -0.23495,0.9398 -0.23495,0.3937 -0.6096,0.6096 -0.374653,0.2159 -0.806453,0.2159 -0.2159,0 -0.47625,-0.0825 -0.254,-0.0762 -0.4572,-0.3048 l -0.1524,0.28575 h -0.22225 z m 0.5461,2.9718 q 0,0.33655 0.10795,0.5207 0.10795,0.1778 0.2794,0.24765 0.17145,0.0699 0.36195,0.0699 0.3048,0 0.52705,-0.17145 0.222253,-0.17145 0.342903,-0.4699 0.127,-0.3048 0.127,-0.70485 0,-0.4318 -0.10795,-0.75565 -0.10795,-0.3302 -0.323853,-0.51435 -0.2159,-0.1905 -0.5461,-0.1905 -0.20955,0 -0.4191,0.1016 -0.2032,0.0952 -0.34925,0.26035 z m 3.093513,2.7178 q -0.19685,0 -0.33655,-0.0953 -0.1397,-0.0952 -0.1397,-0.2921 0,-0.1143 0.0762,-0.20955 0.0762,-0.0952 0.19685,-0.0952 0.1524,-0.006 0.2032,0.0952 0.0572,0.1016 0.0572,0.1778 0,0.019 0,0.0381 0,0.0254 -0.006,0.0508 0.019,0.0127 0.0699,0.0127 0.0762,0 0.1651,-0.0635 0.0889,-0.0635 0.15875,-0.18415 0.0825,-0.1397 0.1905,-0.4191 0.1143,-0.2794 0.254,-0.66675 l -0.9906,-2.1209 q -0.1651,-0.3556 -0.2413,-0.56515 -0.0698,-0.20955 -0.0952,-0.31115 l -0.3048,0.0127 v -0.26035 h 1.31445 v 0.1905 h -0.0254 q -0.2667,0.019 -0.2921,0.2032 -0.0254,0.1778 0.14605,0.5461 l 0.74295,1.59385 q 0.14605,-0.4064 0.2794,-0.8001 0.13335,-0.40005 0.2667,-0.79375 0.0508,-0.1397 0.1016,-0.28575 0.0572,-0.1524 0.10795,-0.2667 0.0572,-0.12065 0.1016,-0.1524 l -0.43815,0.0254 v -0.26035 h 0.99695 v 0.1905 q -0.23495,0.0889 -0.3556,0.29845 -0.1143,0.2032 -0.23495,0.52705 l -0.79375,2.21615 q -0.1905,0.5334 -0.34925,0.9017 -0.15875,0.37465 -0.34925,0.56515 -0.1905,0.19685 -0.47625,0.19685 z m 5.88222,-1.72085 q -0.019,-0.10795 -0.0254,-0.1905 -0.006,-0.0825 -0.019,-0.17145 -0.2159,0.2159 -0.4699,0.3429 -0.24765,0.12065 -0.52705,0.12065 -0.4826,0 -0.71755,-0.2159 -0.23495,-0.22225 -0.23495,-0.53975 0,-0.2921 0.1778,-0.50165 0.18415,-0.2159 0.4699,-0.34925 0.2921,-0.1397 0.62865,-0.2032 0.3429,-0.0699 0.6604,-0.0635 v -0.3937 q 0,-0.22225 -0.0381,-0.4191 -0.0381,-0.19685 -0.1651,-0.32385 -0.127,-0.127 -0.4064,-0.13335 -0.18415,-0.006 -0.381,0.0699 -0.1905,0.0762 -0.2794,0.26035 0.0508,0.0508 0.0635,0.12065 0.019,0.0635 0.019,0.12065 0,0.0762 -0.0635,0.1778 -0.0635,0.0952 -0.22225,0.0889 -0.13335,0 -0.2032,-0.0889 -0.0699,-0.0952 -0.0699,-0.22225 0,-0.2159 0.15875,-0.38735 0.1651,-0.17145 0.45085,-0.27305 0.28575,-0.1016 0.6477,-0.1016 0.5334,0 0.7874,0.28575 0.254,0.2794 0.24765,0.889 0,0.23495 0,0.47625 0,0.23495 -0.006,0.47625 0,0.23495 0,0.47625 0,0.1016 -0.006,0.2032 -0.006,0.1016 -0.0191,0.2286 0.1143,-0.006 0.22225,-0.0127 0.1143,-0.006 0.2286,-0.0127 v 0.2667 z m -0.0571,-1.55575 q -0.2159,0.006 -0.4572,0.0572 -0.23495,0.0444 -0.43815,0.1397 -0.19685,0.0953 -0.32385,0.254 -0.12065,0.1524 -0.1143,0.37465 0.0127,0.23495 0.1524,0.3556 0.14605,0.1143 0.3429,0.1143 0.26035,0 0.45085,-0.0952 0.19685,-0.1016 0.38735,-0.2794 -0.006,-0.0699 -0.006,-0.1524 0,-0.0825 0,-0.17145 0,-0.0318 0,-0.2032 0.006,-0.17145 0.006,-0.3937 z m 2.49133,1.36525 q 0.19685,0 0.27305,-0.0953 0.0762,-0.1016 0.0889,-0.27305 0.0127,-0.1778 0.0127,-0.4064 v -1.4478 q 0,-0.1016 0,-0.2032 0.006,-0.1016 0.0254,-0.20955 -0.1143,0.006 -0.2286,0.0127 -0.10795,0 -0.22225,0.006 v -0.26035 h 0.19685 q 0.27305,0 0.37465,-0.0508 0.10795,-0.0571 0.1778,-0.12065 h 0.18415 q 0.0127,0.1016 0.0191,0.254 0.006,0.14605 0.0127,0.37465 0.0953,-0.15875 0.26035,-0.31115 0.1651,-0.1524 0.3683,-0.254 0.20955,-0.1016 0.43815,-0.1016 0.1778,0 0.31115,0.0952 0.13335,0.0953 0.13335,0.3048 0,0.0508 -0.0318,0.127 -0.0318,0.0699 -0.1016,0.127 -0.0699,0.0508 -0.18415,0.0508 -0.1397,-0.006 -0.22225,-0.10795 -0.0825,-0.10795 -0.0635,-0.24765 -0.15875,-0.006 -0.3302,0.0825 -0.1651,0.0889 -0.31115,0.24765 -0.14605,0.1524 -0.26035,0.36195 l 0.006,1.5621 q 0,0.127 -0.006,0.2286 0,0.0953 -0.019,0.2032 0.1016,-0.006 0.19685,-0.006 0.1016,-0.006 0.2032,-0.0127 v 0.26035 h -1.30175 z m 3.98885,0.2921 q -0.4445,0 -0.80645,-0.2032 -0.36195,-0.20955 -0.57785,-0.5715 -0.20955,-0.3683 -0.20955,-0.8382 0,-0.50165 0.20955,-0.9017 0.20955,-0.40005 0.5715,-0.62865 0.36195,-0.23495 0.8128,-0.23495 0.4445,0 0.80645,0.2159 0.36195,0.20955 0.57785,0.5715 0.2159,0.36195 0.2159,0.8255 0,0.48895 -0.2159,0.89535 -0.20955,0.40005 -0.5715,0.635 -0.36195,0.23495 -0.8128,0.23495 z m 0.0508,-0.254 q 0.33655,0 0.5334,-0.1905 0.19685,-0.1905 0.2794,-0.4953 0.0889,-0.3048 0.0889,-0.64135 0,-0.28575 -0.0571,-0.5588 -0.0508,-0.2794 -0.1651,-0.50165 -0.1143,-0.2286 -0.29845,-0.36195 -0.1778,-0.13335 -0.4318,-0.13335 -0.3302,0 -0.53975,0.1905 -0.20955,0.1905 -0.31115,0.4953 -0.0952,0.3048 -0.0952,0.65405 0,0.3937 0.10795,0.7493 0.10795,0.34925 0.3302,0.5715 0.22225,0.22225 0.5588,0.22225 z m 1.74096,1.77165 v -0.1905 q 0.19685,0 0.27305,-0.1016 0.0762,-0.0953 0.0889,-0.27305 0.0127,-0.17145 0.0127,-0.40005 l 0.0127,-3.06705 q 0,-0.1016 0,-0.2032 0.006,-0.1016 0.0254,-0.20955 -0.1143,0.006 -0.2286,0.0127 -0.10795,0.006 -0.22225,0.0127 v -0.2667 q 0.2794,0 0.4191,-0.0254 0.14605,-0.0254 0.20955,-0.0635 0.0699,-0.0381 0.1143,-0.0825 h 0.1905 q 0.006,0.0635 0.0127,0.1524 0.006,0.0825 0.0127,0.1905 0.1905,-0.17145 0.45085,-0.27305 0.2667,-0.10795 0.5334,-0.10795 0.3683,0 0.6858,0.1905 0.3175,0.1905 0.51435,0.5461 0.19685,0.34925 0.19685,0.8382 0,0.53975 -0.2286,0.94615 -0.22225,0.4064 -0.59055,0.635 -0.3683,0.22225 -0.8001,0.22225 -0.22225,0 -0.41275,-0.0571 -0.18415,-0.0508 -0.34925,-0.1524 v 1.0541 q 0,0.127 -0.006,0.22225 0,0.1016 -0.0191,0.20955 0.1016,-0.006 0.19685,-0.0127 0.1016,0 0.2032,-0.006 v 0.26035 z m 1.67005,-1.77165 q 0.3048,0 0.5207,-0.18415 0.22225,-0.1905 0.33655,-0.51435 0.12065,-0.3302 0.12065,-0.7493 0,-0.3429 -0.1016,-0.65405 -0.0952,-0.3175 -0.31115,-0.51435 -0.20955,-0.19685 -0.5588,-0.19685 -0.2159,0 -0.4191,0.10795 -0.19685,0.1016 -0.3302,0.24765 0,0.0254 0,0.0762 0.006,0.0445 0.006,0.1651 0,0.1143 0,0.34925 0,0.2286 -0.006,0.6223 0,0.3937 0,0.99695 0.15875,0.12065 0.3429,0.18415 0.1905,0.0635 0.40005,0.0635 z m 3.42371,0.254 q -0.43815,0 -0.79375,-0.2032 -0.34925,-0.20955 -0.55245,-0.5842 -0.2032,-0.381 -0.2032,-0.89535 0,-0.4445 0.19685,-0.83185 0.2032,-0.38735 0.56515,-0.6223 0.36195,-0.2413 0.8382,-0.2413 0.2667,0 0.4953,0.0889 0.23495,0.0825 0.41275,0.26035 0.1778,0.17145 0.2794,0.43815 0.1016,0.26035 0.1016,0.61595 l -2.2352,0.0381 q 0,0.4826 0.1016,0.8509 0.10795,0.36195 0.3429,0.56515 0.23495,0.19685 0.60325,0.19685 0.19685,0 0.40005,-0.0699 0.20955,-0.0699 0.38735,-0.1905 0.1778,-0.12065 0.28575,-0.2667 l 0.1524,0.127 q -0.17145,0.2667 -0.41275,0.42545 -0.2413,0.15875 -0.4953,0.2286 -0.254,0.0698 -0.4699,0.0698 z m -0.8763,-2.20345 h 1.61925 q 0,-0.2286 -0.0699,-0.43815 -0.0635,-0.2159 -0.2159,-0.34925 -0.1524,-0.1397 -0.40005,-0.1397 -0.3683,0 -0.61595,0.22225 -0.2413,0.2159 -0.3175,0.70485 z m 5.06307,2.20345 q -0.14605,0 -0.29845,-0.0444 -0.1524,-0.0381 -0.28575,-0.15875 -0.127,-0.12065 -0.2032,-0.34925 -0.0762,-0.23495 -0.0762,-0.61595 l 0.0127,-1.8415 -0.48895,0.006 v -0.27305 q 0.1651,-0.006 0.33655,-0.12065 0.17145,-0.12065 0.3048,-0.32385 0.1397,-0.2032 0.1905,-0.4445 h 0.2159 v 0.889 h 1.0668 v 0.24765 l -1.0668,0.0127 -0.0127,1.7653 q 0,0.28575 0.0444,0.48895 0.0508,0.19685 0.15875,0.29845 0.10795,0.1016 0.2794,0.1016 0.1778,0 0.3302,-0.1016 0.15875,-0.1016 0.2794,-0.2794 l 0.17145,0.1397 q -0.1397,0.20955 -0.2794,0.3302 -0.13335,0.12065 -0.26035,0.1778 -0.127,0.0635 -0.23495,0.0762 -0.10795,0.019 -0.18415,0.019 z m 3.01094,-0.2921 q 0.19685,0 0.27305,-0.0953 0.0762,-0.1016 0.0889,-0.27305 0.0127,-0.1778 0.0127,-0.4064 v -0.889 q 0,-0.5461 -0.1778,-0.81915 -0.17145,-0.27305 -0.5461,-0.2667 -0.23495,0.006 -0.46355,0.1143 -0.22225,0.10795 -0.36195,0.2794 v 1.87325 q 0,0.127 -0.006,0.2286 -0.006,0.0953 -0.0254,0.2032 0.1016,-0.006 0.19685,-0.006 0.1016,-0.006 0.2032,-0.0127 v 0.26035 h -1.2954 v -0.1905 q 0.19685,0 0.27305,-0.0953 0.0762,-0.1016 0.0889,-0.27305 0.019,-0.1778 0.019,-0.4064 v -3.00355 q 0,-0.1016 0,-0.1905 0.006,-0.0953 0.0191,-0.22225 -0.1143,0.006 -0.2286,0.0127 -0.10795,0.006 -0.22225,0.0127 v -0.2667 q 0.2794,0 0.4318,-0.0254 0.15875,-0.0254 0.23495,-0.0635 0.0826,-0.0381 0.127,-0.0825 h 0.18415 v 1.93675 q 0.1397,-0.12065 0.31115,-0.20955 0.1778,-0.0952 0.36195,-0.1524 0.1905,-0.0572 0.3683,-0.0572 0.55245,0 0.79375,0.34925 0.24765,0.3429 0.254,1.07315 l 0.006,1.1811 q 0,0.127 -0.006,0.2286 0,0.0953 -0.019,0.2032 0.1016,-0.006 0.19685,-0.006 0.1016,-0.006 0.2032,-0.0127 v 0.26035 h -1.2954 z m 1.47427,0 q 0.19685,0 0.27305,-0.0953 0.0762,-0.1016 0.0889,-0.27305 0.0127,-0.1778 0.0127,-0.4064 v -1.4478 q 0,-0.1016 0,-0.2032 0.006,-0.1016 0.0254,-0.20955 -0.1143,0.006 -0.2286,0.0127 -0.10795,0 -0.22225,0.006 v -0.26035 h 0.19685 q 0.27305,0 0.37465,-0.0508 0.10795,-0.0571 0.1778,-0.12065 h 0.18415 q 0.0127,0.1016 0.019,0.254 0.006,0.14605 0.0127,0.37465 0.0953,-0.15875 0.26035,-0.31115 0.1651,-0.1524 0.3683,-0.254 0.20955,-0.1016 0.43815,-0.1016 0.1778,0 0.31115,0.0952 0.13335,0.0953 0.13335,0.3048 0,0.0508 -0.0317,0.127 -0.0318,0.0699 -0.1016,0.127 -0.0699,0.0508 -0.18415,0.0508 -0.1397,-0.006 -0.22225,-0.10795 -0.0825,-0.10795 -0.0635,-0.24765 -0.15875,-0.006 -0.3302,0.0825 -0.1651,0.0889 -0.31115,0.24765 -0.14605,0.1524 -0.26035,0.36195 l 0.006,1.5621 q 0,0.127 -0.006,0.2286 0,0.0953 -0.0191,0.2032 0.1016,-0.006 0.19685,-0.006 0.1016,-0.006 0.2032,-0.0127 v 0.26035 h -1.30175 z m 3.98886,0.2921 q -0.4445,0 -0.80645,-0.2032 -0.36195,-0.20955 -0.57785,-0.5715 -0.20955,-0.3683 -0.20955,-0.8382 0,-0.50165 0.20955,-0.9017 0.20955,-0.40005 0.5715,-0.62865 0.36195,-0.23495 0.8128,-0.23495 0.4445,0 0.80645,0.2159 0.36195,0.20955 0.57785,0.5715 0.2159,0.36195 0.2159,0.8255 0,0.48895 -0.2159,0.89535 -0.20955,0.40005 -0.5715,0.635 -0.36195,0.23495 -0.8128,0.23495 z m 0.0508,-0.254 q 0.33655,0 0.5334,-0.1905 0.19685,-0.1905 0.2794,-0.4953 0.0889,-0.3048 0.0889,-0.64135 0,-0.28575 -0.0571,-0.5588 -0.0508,-0.2794 -0.1651,-0.50165 -0.1143,-0.2286 -0.29845,-0.36195 -0.1778,-0.13335 -0.4318,-0.13335 -0.3302,0 -0.53975,0.1905 -0.20955,0.1905 -0.31115,0.4953 -0.0952,0.3048 -0.0952,0.65405 0,0.3937 0.10795,0.7493 0.10795,0.34925 0.3302,0.5715 0.22225,0.22225 0.5588,0.22225 z m 3.13795,0.254 q -0.3429,0 -0.57785,-0.127 -0.2286,-0.127 -0.34925,-0.4318 -0.1143,-0.3048 -0.1143,-0.8255 v -1.1303 q 0,-0.1016 0,-0.2032 0.006,-0.1016 0.0254,-0.20955 -0.10795,0.006 -0.22225,0.0127 -0.10795,0 -0.2159,0.006 v -0.26035 h 0.19685 q 0.27305,0 0.3937,-0.0508 0.127,-0.0571 0.19685,-0.12065 h 0.18415 v 1.93675 q 0,0.5461 0.1524,0.81915 0.15875,0.2667 0.5334,0.26035 0.2413,-0.006 0.4572,-0.14605 0.22225,-0.14605 0.3556,-0.3429 v -1.63195 q 0,-0.1524 0.006,-0.26035 0.006,-0.1143 0.0254,-0.22225 -0.1143,0.006 -0.2286,0.0127 -0.1143,0 -0.2286,0.006 v -0.26035 h 0.19685 q 0.27305,0 0.3937,-0.0508 0.127,-0.0571 0.19685,-0.12065 h 0.18415 l -0.006,2.4003 q 0,0.1016 -0.006,0.28575 -0.006,0.18415 -0.019,0.31115 0.1143,-0.006 0.2286,-0.0127 0.1143,-0.006 0.2286,-0.0127 v 0.2667 h -0.90805 q -0.019,-0.10795 -0.0317,-0.2032 -0.006,-0.0953 -0.0127,-0.1778 -0.19685,0.19685 -0.47625,0.3429 -0.2794,0.1397 -0.5588,0.1397 z m 3.69041,1.61925 q -0.5715,0 -0.92075,-0.127 -0.34925,-0.127 -0.508,-0.32385 -0.15875,-0.19685 -0.15875,-0.4064 0,-0.19685 0.0889,-0.34925 0.0952,-0.14605 0.2286,-0.254 0.1397,-0.10795 0.2667,-0.15875 -0.2032,-0.0698 -0.32385,-0.18415 -0.1143,-0.12065 -0.1143,-0.3175 0,-0.22225 0.1778,-0.41275 0.1778,-0.19685 0.4572,-0.2413 -0.2921,-0.1397 -0.4699,-0.38735 -0.17145,-0.24765 -0.17145,-0.57785 0,-0.381 0.19685,-0.6604 0.19685,-0.28575 0.50165,-0.43815 0.31115,-0.15875 0.64135,-0.15875 0.20955,0 0.4191,0.0635 0.20955,0.0572 0.38735,0.17145 0.0635,-0.1778 0.1778,-0.3175 0.12065,-0.1397 0.27305,-0.2159 0.1524,-0.0825 0.3175,-0.0825 0.1651,0 0.24765,0.0889 0.0889,0.0825 0.0889,0.2286 0,0.0445 -0.0254,0.10795 -0.0254,0.0635 -0.0889,0.10795 -0.0572,0.0445 -0.15875,0.0445 -0.10795,0 -0.1778,-0.0635 -0.0699,-0.0635 -0.0889,-0.15875 -0.15875,0.0254 -0.24765,0.1524 -0.0889,0.12065 -0.12065,0.2667 0.1524,0.1397 0.2413,0.33655 0.0953,0.19685 0.0953,0.4191 0,0.3556 -0.1905,0.635 -0.18415,0.2794 -0.48895,0.43815 -0.3048,0.1524 -0.6604,0.1524 -0.12065,0 -0.20955,-0.0127 -0.0889,-0.019 -0.2159,-0.019 -0.23495,0 -0.381,0.1143 -0.14605,0.1143 -0.1016,0.27305 0.0508,0.1524 0.31115,0.19685 0.26035,0.0381 0.6985,0.0571 0.48895,0.0191 0.8382,0.1143 0.34925,0.0952 0.5334,0.2921 0.1905,0.2032 0.1905,0.5461 0,0.254 -0.1397,0.45085 -0.13335,0.2032 -0.36195,0.33655 -0.22225,0.13335 -0.50165,0.2032 -0.27305,0.0699 -0.55245,0.0699 z m -0.006,-0.24765 q 0.5461,0 0.8509,-0.2032 0.3048,-0.2032 0.3048,-0.47625 0,-0.23495 -0.15875,-0.36195 -0.15875,-0.12065 -0.4318,-0.17145 -0.27305,-0.0445 -0.62865,-0.0508 -0.17145,-0.006 -0.33655,-0.019 -0.1651,-0.006 -0.3175,-0.0318 -0.17145,0.1143 -0.2667,0.2794 -0.0952,0.1651 -0.0952,0.34925 0,0.31115 0.2921,0.4953 0.29845,0.1905 0.7874,0.1905 z m -0.0825,-2.6035 q 0.23495,0 0.38735,-0.1143 0.15875,-0.1143 0.23495,-0.31115 0.0826,-0.19685 0.0826,-0.4445 0,-0.2794 -0.0826,-0.5207 -0.0825,-0.2413 -0.24765,-0.38735 -0.15875,-0.14605 -0.4064,-0.14605 -0.3429,0 -0.5334,0.26035 -0.18415,0.254 -0.18415,0.635 0,0.3048 0.0889,0.53975 0.0889,0.2286 0.254,0.36195 0.17145,0.127 0.4064,0.127 z m 3.96981,0.9398 q 0.19685,0 0.27305,-0.0953 0.0762,-0.1016 0.0889,-0.27305 0.0127,-0.1778 0.0127,-0.4064 v -0.889 q 0,-0.5461 -0.1778,-0.81915 -0.17145,-0.27305 -0.5461,-0.2667 -0.23495,0.006 -0.46355,0.1143 -0.22225,0.10795 -0.36195,0.2794 v 1.87325 q 0,0.127 -0.006,0.2286 -0.006,0.0953 -0.0254,0.2032 0.1016,-0.006 0.19685,-0.006 0.1016,-0.006 0.2032,-0.0127 v 0.26035 h -1.2954 v -0.1905 q 0.19685,0 0.27305,-0.0953 0.0762,-0.1016 0.0889,-0.27305 0.019,-0.1778 0.019,-0.4064 v -3.00355 q 0,-0.1016 0,-0.1905 0.006,-0.0953 0.019,-0.22225 -0.1143,0.006 -0.2286,0.0127 -0.10795,0.006 -0.22225,0.0127 v -0.2667 q 0.2794,0 0.4318,-0.0254 0.15875,-0.0254 0.23495,-0.0635 0.0825,-0.0381 0.127,-0.0825 h 0.18415 v 1.93675 q 0.1397,-0.12065 0.31115,-0.20955 0.1778,-0.0952 0.36195,-0.1524 0.1905,-0.0572 0.3683,-0.0572 0.55245,0 0.79375,0.34925 0.24765,0.3429 0.254,1.07315 l 0.006,1.1811 q 0,0.127 -0.006,0.2286 0,0.0953 -0.019,0.2032 0.1016,-0.006 0.19685,-0.006 0.1016,-0.006 0.2032,-0.0127 v 0.26035 h -1.2954 z m 4.04708,0.2921 q -0.14605,0 -0.29845,-0.0444 -0.1524,-0.0381 -0.28575,-0.15875 -0.127,-0.12065 -0.2032,-0.34925 -0.0762,-0.23495 -0.0762,-0.61595 l 0.0127,-1.8415 -0.48895,0.006 v -0.27305 q 0.1651,-0.006 0.33655,-0.12065 0.17145,-0.12065 0.3048,-0.32385 0.1397,-0.2032 0.1905,-0.4445 h 0.2159 v 0.889 h 1.0668 v 0.24765 l -1.0668,0.0127 -0.0127,1.7653 q 0,0.28575 0.0444,0.48895 0.0508,0.19685 0.15875,0.29845 0.10795,0.1016 0.2794,0.1016 0.1778,0 0.3302,-0.1016 0.15875,-0.1016 0.2794,-0.2794 l 0.17145,0.1397 q -0.1397,0.20955 -0.2794,0.3302 -0.13335,0.12065 -0.26035,0.1778 -0.127,0.0635 -0.23495,0.0762 -0.10795,0.019 -0.18415,0.019 z m 3.01094,-0.2921 q 0.19685,0 0.27305,-0.0953 0.0762,-0.1016 0.0889,-0.27305 0.0127,-0.1778 0.0127,-0.4064 v -0.889 q 0,-0.5461 -0.1778,-0.81915 -0.17145,-0.27305 -0.5461,-0.2667 -0.23495,0.006 -0.46355,0.1143 -0.22225,0.10795 -0.36195,0.2794 v 1.87325 q 0,0.127 -0.006,0.2286 -0.006,0.0953 -0.0254,0.2032 0.1016,-0.006 0.19685,-0.006 0.1016,-0.006 0.2032,-0.0127 v 0.26035 h -1.2954 v -0.1905 q 0.19685,0 0.27305,-0.0953 0.0762,-0.1016 0.0889,-0.27305 0.019,-0.1778 0.019,-0.4064 v -3.00355 q 0,-0.1016 0,-0.1905 0.006,-0.0953 0.019,-0.22225 -0.1143,0.006 -0.2286,0.0127 -0.10795,0.006 -0.22225,0.0127 v -0.2667 q 0.2794,0 0.4318,-0.0254 0.15875,-0.0254 0.23495,-0.0635 0.0825,-0.0381 0.127,-0.0825 h 0.18415 v 1.93675 q 0.1397,-0.12065 0.31115,-0.20955 0.1778,-0.0952 0.36195,-0.1524 0.1905,-0.0572 0.3683,-0.0572 0.55245,0 0.79375,0.34925 0.24765,0.3429 0.254,1.07315 l 0.006,1.1811 q 0,0.127 -0.006,0.2286 0,0.0953 -0.019,0.2032 0.1016,-0.006 0.19685,-0.006 0.1016,-0.006 0.2032,-0.0127 v 0.26035 h -1.2954 z m 3.01097,0.2921 q -0.43815,0 -0.79375,-0.2032 -0.34925,-0.20955 -0.55245,-0.5842 -0.2032,-0.381 -0.2032,-0.89535 0,-0.4445 0.19685,-0.83185 0.2032,-0.38735 0.56515,-0.6223 0.36195,-0.2413 0.8382,-0.2413 0.2667,0 0.4953,0.0889 0.23495,0.0825 0.41275,0.26035 0.1778,0.17145 0.2794,0.43815 0.1016,0.26035 0.1016,0.61595 l -2.2352,0.0381 q 0,0.4826 0.1016,0.8509 0.10795,0.36195 0.3429,0.56515 0.23495,0.19685 0.60325,0.19685 0.19685,0 0.40005,-0.0699 0.20955,-0.0699 0.38735,-0.1905 0.1778,-0.12065 0.28575,-0.2667 l 0.1524,0.127 q -0.17145,0.2667 -0.41275,0.42545 -0.2413,0.15875 -0.4953,0.2286 -0.254,0.0698 -0.4699,0.0698 z m -0.8763,-2.20345 h 1.61925 q 0,-0.2286 -0.0699,-0.43815 -0.0635,-0.2159 -0.2159,-0.34925 -0.1524,-0.1397 -0.40005,-0.1397 -0.3683,0 -0.61595,0.22225 -0.2413,0.2159 -0.3175,0.70485 z m 4.96147,2.1209 -0.83185,-2.4384 q -0.0445,-0.13335 -0.0825,-0.2286 -0.0318,-0.0952 -0.0508,-0.1651 -0.019,-0.0699 -0.0317,-0.12065 l -0.33655,0.019 v -0.26035 h 1.3462 v 0.1905 q -0.28575,0.006 -0.3175,0.19685 -0.0254,0.18415 0.0762,0.48895 l 0.2921,0.889 q 0.0508,0.1524 0.1016,0.31115 0.0508,0.1524 0.1016,0.3048 0.0572,-0.17145 0.1143,-0.3429 0.0635,-0.1778 0.12065,-0.3556 l 0.56515,-1.68275 h 0.26035 l 0.64135,1.84785 q 0.0508,0.1397 0.1016,0.28575 0.0508,0.14605 0.1016,0.2921 0.0508,-0.1397 0.0952,-0.27305 0.0508,-0.1397 0.0953,-0.2794 l 0.4191,-1.2065 q 0.0445,-0.127 0.0889,-0.2413 0.0445,-0.1143 0.1016,-0.18415 l -0.3683,0.019 v -0.26035 h 1.1049 v 0.1905 q -0.1651,0.006 -0.27305,0.0445 -0.1016,0.0381 -0.17145,0.1016 -0.0699,0.0635 -0.1143,0.1524 -0.0445,0.0889 -0.0825,0.2032 l -0.9144,2.5019 h -0.254 l -0.60325,-1.73355 q -0.0381,-0.1143 -0.0762,-0.22225 -0.0381,-0.1143 -0.0762,-0.22225 -0.0381,-0.1143 -0.0762,-0.22225 -0.0381,0.10795 -0.0762,0.22225 -0.0381,0.10795 -0.0762,0.22225 -0.0381,0.10795 -0.0762,0.22225 l -0.5969,1.73355 z m 3.70311,-0.20955 q 0.19685,0 0.27305,-0.0953 0.0762,-0.1016 0.0889,-0.27305 0.0127,-0.1778 0.0127,-0.4064 v -1.4478 q 0,-0.1016 0.006,-0.1905 0.006,-0.0952 0.0191,-0.22225 -0.1143,0.006 -0.2286,0.0127 -0.10795,0.006 -0.22225,0.0127 v -0.2667 q 0.2794,0 0.4318,-0.0254 0.1524,-0.0254 0.2286,-0.0635 0.0826,-0.0381 0.127,-0.0825 h 0.18415 v 2.5654 q 0,0.127 -0.006,0.2286 0,0.0953 -0.019,0.2032 0.1016,-0.006 0.19685,-0.006 0.1016,-0.006 0.2032,-0.0127 v 0.26035 h -1.2954 z m 0.6096,-3.67665 q -0.13335,0 -0.23495,-0.10795 -0.1016,-0.10795 -0.1016,-0.2667 0,-0.15875 0.1016,-0.2667 0.10795,-0.1143 0.2413,-0.1143 0.14605,0 0.2413,0.1143 0.1016,0.10795 0.1016,0.2667 0,0.15875 -0.10795,0.2667 -0.1016,0.10795 -0.2413,0.10795 z m 0.88371,3.86715 v -0.1905 q 0.19685,0 0.27305,-0.0953 0.0762,-0.1016 0.0889,-0.27305 0.0127,-0.1778 0.0127,-0.4064 l 0.006,-1.4478 q 0,-0.1016 0,-0.2032 0.006,-0.1016 0.0254,-0.20955 -0.1143,0.006 -0.2286,0.0127 -0.10795,0.006 -0.22225,0.0127 v -0.2667 q 0.2794,0 0.4191,-0.0254 0.14605,-0.0254 0.2159,-0.0635 0.0699,-0.0381 0.1143,-0.0825 h 0.18415 q 0.006,0.0444 0.006,0.1016 0.006,0.0572 0.0127,0.127 0.006,0.0699 0.006,0.15875 0.1397,-0.12065 0.3048,-0.2159 0.17145,-0.0952 0.3556,-0.1524 0.1905,-0.0572 0.37465,-0.0572 0.55245,0 0.80645,0.34925 0.254,0.3429 0.254,1.07315 v 1.1811 q 0,0.127 -0.006,0.2286 0,0.0953 -0.0191,0.2032 0.1016,-0.006 0.19685,-0.006 0.1016,-0.006 0.2032,-0.0127 v 0.26035 h -1.2954 v -0.1905 q 0.19685,0 0.27305,-0.0953 0.0762,-0.1016 0.0889,-0.27305 0.0127,-0.1778 0.0127,-0.4064 v -0.889 q -0.006,-0.5461 -0.18415,-0.8255 -0.17145,-0.2794 -0.5461,-0.27305 -0.2286,0.006 -0.45085,0.12065 -0.2159,0.1143 -0.36195,0.2921 0.006,0.0508 0.006,0.1143 0,0.0635 0,0.13335 l -0.006,1.61925 q 0,0.127 -0.006,0.2286 0,0.0953 -0.019,0.2032 0.1016,-0.006 0.19685,-0.006 0.1016,-0.006 0.2032,-0.0127 v 0.26035 z m 4.92231,0.1016 q -0.38735,0 -0.6985,-0.1905 -0.31115,-0.19685 -0.4953,-0.5588 -0.1778,-0.36195 -0.1778,-0.8509 0,-0.5207 0.20955,-0.92075 0.20955,-0.40005 0.57785,-0.62865 0.37465,-0.2286 0.84455,-0.2286 0.20955,0 0.41275,0.0572 0.20955,0.0508 0.3302,0.12065 v -0.86995 q 0,-0.1016 0,-0.1905 0.006,-0.0953 0.019,-0.22225 -0.1143,0.006 -0.2286,0.0127 -0.10795,0.006 -0.22225,0.0127 v -0.2667 q 0.2794,0 0.4318,-0.0254 0.1524,-0.0254 0.2286,-0.0635 0.0825,-0.0381 0.127,-0.0825 h 0.18415 v 4.12115 q 0,0.1016 -0.006,0.2032 -0.006,0.1016 -0.019,0.2286 0.1143,-0.006 0.22225,-0.0127 0.1143,-0.006 0.2286,-0.0127 v 0.2667 h -0.90805 q -0.0191,-0.0952 -0.0318,-0.17145 -0.006,-0.0825 -0.0127,-0.15875 -0.1778,0.19685 -0.43815,0.3175 -0.26035,0.1143 -0.57785,0.1143 z m 0.2286,-0.31115 q 0.20955,0 0.4191,-0.12065 0.2159,-0.12065 0.3556,-0.29845 -0.006,-0.0762 -0.006,-0.15875 0,-0.0889 0,-0.1905 l 0.006,-1.8288 q -0.1524,-0.1143 -0.33655,-0.1651 -0.1778,-0.0572 -0.3683,-0.0572 -0.3175,0 -0.55245,0.18415 -0.23495,0.18415 -0.3556,0.51435 -0.12065,0.3302 -0.10795,0.7747 0.0127,0.38735 0.12065,0.69215 0.1143,0.3048 0.3175,0.4826 0.20955,0.17145 0.508,0.17145 z m 3.49356,0.31115 q -0.4445,0 -0.80645,-0.2032 -0.36195,-0.20955 -0.57785,-0.5715 -0.20955,-0.3683 -0.20955,-0.8382 0,-0.50165 0.20955,-0.9017 0.20955,-0.40005 0.5715,-0.62865 0.36195,-0.23495 0.8128,-0.23495 0.4445,0 0.80645,0.2159 0.36195,0.20955 0.57785,0.5715 0.2159,0.36195 0.2159,0.8255 0,0.48895 -0.2159,0.89535 -0.20955,0.40005 -0.5715,0.635 -0.36195,0.23495 -0.8128,0.23495 z m 0.0508,-0.254 q 0.33655,0 0.5334,-0.1905 0.19685,-0.1905 0.2794,-0.4953 0.0889,-0.3048 0.0889,-0.64135 0,-0.28575 -0.0572,-0.5588 -0.0508,-0.2794 -0.1651,-0.50165 -0.1143,-0.2286 -0.29845,-0.36195 -0.1778,-0.13335 -0.4318,-0.13335 -0.3302,0 -0.53975,0.1905 -0.20955,0.1905 -0.31115,0.4953 -0.0953,0.3048 -0.0953,0.65405 0,0.3937 0.10795,0.7493 0.10795,0.34925 0.3302,0.5715 0.22225,0.22225 0.5588,0.22225 z m 2.8268,0.17145 -0.83185,-2.4384 q -0.0445,-0.13335 -0.0825,-0.2286 -0.0318,-0.0952 -0.0508,-0.1651 -0.019,-0.0699 -0.0317,-0.12065 l -0.33655,0.019 v -0.26035 h 1.3462 v 0.1905 q -0.28575,0.006 -0.3175,0.19685 -0.0254,0.18415 0.0762,0.48895 l 0.2921,0.889 q 0.0508,0.1524 0.1016,0.31115 0.0508,0.1524 0.1016,0.3048 0.0572,-0.17145 0.1143,-0.3429 0.0635,-0.1778 0.12065,-0.3556 l 0.56515,-1.68275 h 0.26035 l 0.64135,1.84785 q 0.0508,0.1397 0.1016,0.28575 0.0508,0.14605 0.1016,0.2921 0.0508,-0.1397 0.0952,-0.27305 0.0508,-0.1397 0.0953,-0.2794 l 0.4191,-1.2065 q 0.0445,-0.127 0.0889,-0.2413 0.0445,-0.1143 0.1016,-0.18415 l -0.3683,0.019 v -0.26035 h 1.1049 v 0.1905 q -0.1651,0.006 -0.27305,0.0445 -0.1016,0.0381 -0.17145,0.1016 -0.0698,0.0635 -0.1143,0.1524 -0.0445,0.0889 -0.0825,0.2032 l -0.9144,2.5019 h -0.254 l -0.60325,-1.73355 q -0.0381,-0.1143 -0.0762,-0.22225 -0.0381,-0.1143 -0.0762,-0.22225 -0.0381,-0.1143 -0.0762,-0.22225 -0.0381,0.10795 -0.0762,0.22225 -0.0381,0.10795 -0.0762,0.22225 -0.0381,0.10795 -0.0762,0.22225 l -0.5969,1.73355 z m 3.86186,1.1176 -0.17145,-0.127 q 0.0699,-0.0889 0.14605,-0.254 0.0762,-0.1651 0.12065,-0.3683 0.0508,-0.19685 0.0254,-0.38735 -0.0445,0.019 -0.0825,0.0254 -0.0381,0.0127 -0.0762,0.0127 -0.12065,0 -0.20955,-0.0889 -0.0825,-0.0889 -0.0825,-0.22225 0,-0.1778 0.1016,-0.27305 0.10795,-0.0952 0.24765,-0.0952 0.22225,0 0.33655,0.17145 0.1143,0.1651 0.1143,0.4064 0,0.15875 -0.0635,0.38735 -0.0572,0.2286 -0.1651,0.4445 -0.1016,0.22225 -0.2413,0.3683 z"
         id="path7"
         style="fill:#ffffff" />
      <path
         d="m 39.228732,167.43098 q 0,-0.70485 0.254,-1.11125 0.26035,-0.4064 0.889,-0.4064 0.1397,0 0.2921,0.0508 0.15875,0.0444 0.27305,0.1524 0.1143,0.1016 0.1143,0.2667 0,0.12065 -0.06985,0.2032 -0.0635,0.0825 -0.1905,0.0825 -0.1524,0.006 -0.2159,-0.0889 -0.05715,-0.1016 -0.05715,-0.17145 0,-0.0381 0.0064,-0.0762 0.0063,-0.0381 0.0254,-0.0825 -0.04445,-0.0571 -0.127,-0.0825 -0.0762,-0.0254 -0.14605,-0.0254 -0.19685,0 -0.3048,0.1143 -0.10795,0.1143 -0.1524,0.28575 -0.04445,0.17145 -0.04445,0.3556 v 0.66675 h 0.85725 v 0.24765 l -0.85725,0.019 0.0063,2.2352 q 0,0.127 -0.0063,0.2286 0,0.0953 -0.01905,0.2032 0.1016,-0.006 0.19685,-0.006 0.1016,-0.006 0.2032,-0.0127 v 0.26035 h -1.2954 v -0.1905 q 0.19685,0 0.27305,-0.0953 0.0762,-0.1016 0.0889,-0.27305 0.0127,-0.1778 0.0127,-0.4064 l -0.0063,-1.93675 -0.5207,0.0127 v -0.28575 h 0.5207 z m 2.998259,3.40995 q -0.4445,0 -0.80645,-0.2032 -0.36195,-0.20955 -0.57785,-0.5715 -0.20955,-0.3683 -0.20955,-0.8382 0,-0.50165 0.20955,-0.9017 0.20955,-0.40005 0.5715,-0.62865 0.36195,-0.23495 0.8128,-0.23495 0.4445,0 0.80645,0.2159 0.36195,0.20955 0.57785,0.5715 0.2159,0.36195 0.2159,0.8255 0,0.48895 -0.2159,0.89535 -0.20955,0.40005 -0.5715,0.635 -0.36195,0.23495 -0.8128,0.23495 z m 0.0508,-0.254 q 0.33655,0 0.5334,-0.1905 0.19685,-0.1905 0.2794,-0.4953 0.0889,-0.3048 0.0889,-0.64135 0,-0.28575 -0.05715,-0.5588 -0.0508,-0.2794 -0.1651,-0.50165 -0.1143,-0.2286 -0.29845,-0.36195 -0.1778,-0.13335 -0.4318,-0.13335 -0.3302,0 -0.53975,0.1905 -0.20955,0.1905 -0.31115,0.4953 -0.09525,0.3048 -0.09525,0.65405 0,0.3937 0.10795,0.7493 0.10795,0.34925 0.3302,0.5715 0.22225,0.22225 0.5588,0.22225 z m 1.798102,-0.0381 q 0.19685,0 0.27305,-0.0953 0.0762,-0.1016 0.0889,-0.27305 0.0127,-0.1778 0.0127,-0.4064 v -1.4478 q 0,-0.1016 0,-0.2032 0.0063,-0.1016 0.0254,-0.20955 -0.1143,0.006 -0.2286,0.0127 -0.10795,0 -0.22225,0.006 v -0.26035 h 0.19685 q 0.27305,0 0.37465,-0.0508 0.10795,-0.0571 0.1778,-0.12065 h 0.18415 q 0.0127,0.1016 0.01905,0.254 0.0063,0.14605 0.0127,0.37465 0.09525,-0.15875 0.26035,-0.31115 0.1651,-0.1524 0.3683,-0.254 0.20955,-0.1016 0.43815,-0.1016 0.1778,0 0.31115,0.0952 0.13335,0.0953 0.13335,0.3048 0,0.0508 -0.03175,0.127 -0.03175,0.0699 -0.1016,0.127 -0.06985,0.0508 -0.18415,0.0508 -0.1397,-0.006 -0.22225,-0.10795 -0.08255,-0.10795 -0.0635,-0.24765 -0.15875,-0.006 -0.3302,0.0825 -0.1651,0.0889 -0.31115,0.24765 -0.14605,0.1524 -0.26035,0.36195 l 0.0063,1.5621 q 0,0.127 -0.0063,0.2286 0,0.0953 -0.01905,0.2032 0.1016,-0.006 0.19685,-0.006 0.1016,-0.006 0.2032,-0.0127 v 0.26035 h -1.30175 z m 5.031323,0.2921 q -0.14605,0 -0.29845,-0.0444 -0.1524,-0.0381 -0.28575,-0.15875 -0.127,-0.12065 -0.2032,-0.34925 -0.0762,-0.23495 -0.0762,-0.61595 l 0.0127,-1.8415 -0.48895,0.006 v -0.27305 q 0.1651,-0.006 0.33655,-0.12065 0.17145,-0.12065 0.3048,-0.32385 0.1397,-0.2032 0.1905,-0.4445 h 0.2159 v 0.889 h 1.0668 v 0.24765 l -1.0668,0.0127 -0.0127,1.7653 q 0,0.28575 0.04445,0.48895 0.0508,0.19685 0.15875,0.29845 0.10795,0.1016 0.2794,0.1016 0.1778,0 0.3302,-0.1016 0.15875,-0.1016 0.2794,-0.2794 l 0.17145,0.1397 q -0.1397,0.20955 -0.2794,0.3302 -0.13335,0.12065 -0.26035,0.1778 -0.127,0.0635 -0.23495,0.0762 -0.10795,0.019 -0.18415,0.019 z m 3.010952,-0.2921 q 0.19685,0 0.27305,-0.0953 0.0762,-0.1016 0.0889,-0.27305 0.0127,-0.1778 0.0127,-0.4064 v -0.889 q 0,-0.5461 -0.1778,-0.81915 -0.17145,-0.27305 -0.5461,-0.2667 -0.23495,0.006 -0.46355,0.1143 -0.22225,0.10795 -0.36195,0.2794 v 1.87325 q 0,0.127 -0.0064,0.2286 -0.0063,0.0953 -0.0254,0.2032 0.1016,-0.006 0.19685,-0.006 0.1016,-0.006 0.2032,-0.0127 v 0.26035 h -1.2954 v -0.1905 q 0.19685,0 0.27305,-0.0953 0.0762,-0.1016 0.0889,-0.27305 0.01905,-0.1778 0.01905,-0.4064 v -3.00355 q 0,-0.1016 0,-0.1905 0.0064,-0.0953 0.01905,-0.22225 -0.1143,0.006 -0.2286,0.0127 -0.10795,0.006 -0.22225,0.0127 v -0.2667 q 0.2794,0 0.4318,-0.0254 0.15875,-0.0254 0.23495,-0.0635 0.08255,-0.0381 0.127,-0.0825 h 0.18415 v 1.93675 q 0.1397,-0.12065 0.31115,-0.20955 0.1778,-0.0952 0.36195,-0.1524 0.1905,-0.0572 0.3683,-0.0572 0.55245,0 0.79375,0.34925 0.24765,0.3429 0.254,1.07315 l 0.0064,1.1811 q 0,0.127 -0.0064,0.2286 0,0.0953 -0.01905,0.2032 0.1016,-0.006 0.19685,-0.006 0.1016,-0.006 0.2032,-0.0127 v 0.26035 h -1.2954 z m 3.010964,0.2921 q -0.43815,0 -0.79375,-0.2032 -0.34925,-0.20955 -0.55245,-0.5842 -0.2032,-0.381 -0.2032,-0.89535 0,-0.4445 0.19685,-0.83185 0.2032,-0.38735 0.56515,-0.6223 0.36195,-0.2413 0.8382,-0.2413 0.2667,0 0.4953,0.0889 0.23495,0.0825 0.41275,0.26035 0.1778,0.17145 0.2794,0.43815 0.1016,0.26035 0.1016,0.61595 l -2.2352,0.0381 q 0,0.4826 0.1016,0.8509 0.10795,0.36195 0.3429,0.56515 0.23495,0.19685 0.60325,0.19685 0.19685,0 0.40005,-0.0699 0.20955,-0.0699 0.38735,-0.1905 0.1778,-0.12065 0.28575,-0.2667 l 0.1524,0.127 q -0.17145,0.2667 -0.41275,0.42545 -0.2413,0.15875 -0.4953,0.2286 -0.254,0.0698 -0.4699,0.0698 z m -0.8763,-2.20345 h 1.61925 q 0,-0.2286 -0.06985,-0.43815 -0.0635,-0.2159 -0.2159,-0.34925 -0.1524,-0.1397 -0.40005,-0.1397 -0.3683,0 -0.61595,0.22225 -0.2413,0.2159 -0.3175,0.70485 z m 5.907619,1.91135 q 0.19685,0 0.27305,-0.0953 0.0762,-0.1016 0.0889,-0.27305 0.0127,-0.1778 0.0127,-0.4064 v -0.889 q 0,-0.5461 -0.1778,-0.81915 -0.17145,-0.27305 -0.5461,-0.2667 -0.23495,0.006 -0.46355,0.1143 -0.22225,0.10795 -0.36195,0.2794 v 1.87325 q 0,0.127 -0.0063,0.2286 -0.0064,0.0953 -0.0254,0.2032 0.1016,-0.006 0.19685,-0.006 0.1016,-0.006 0.2032,-0.0127 v 0.26035 h -1.2954 v -0.1905 q 0.19685,0 0.27305,-0.0953 0.0762,-0.1016 0.0889,-0.27305 0.01905,-0.1778 0.01905,-0.4064 v -3.00355 q 0,-0.1016 0,-0.1905 0.0063,-0.0953 0.01905,-0.22225 -0.1143,0.006 -0.2286,0.0127 -0.10795,0.006 -0.22225,0.0127 v -0.2667 q 0.2794,0 0.4318,-0.0254 0.15875,-0.0254 0.23495,-0.0635 0.08255,-0.0381 0.127,-0.0825 h 0.18415 v 1.93675 q 0.1397,-0.12065 0.31115,-0.20955 0.1778,-0.0952 0.36195,-0.1524 0.1905,-0.0572 0.3683,-0.0572 0.55245,0 0.79375,0.34925 0.24765,0.3429 0.254,1.07315 l 0.0063,1.1811 q 0,0.127 -0.0063,0.2286 0,0.0953 -0.01905,0.2032 0.1016,-0.006 0.19685,-0.006 0.1016,-0.006 0.2032,-0.0127 v 0.26035 h -1.2954 z m 3.049063,0.2921 q -0.4445,0 -0.80645,-0.2032 -0.36195,-0.20955 -0.57785,-0.5715 -0.20955,-0.3683 -0.20955,-0.8382 0,-0.50165 0.20955,-0.9017 0.20955,-0.40005 0.5715,-0.62865 0.36195,-0.23495 0.8128,-0.23495 0.4445,0 0.80645,0.2159 0.36195,0.20955 0.57785,0.5715 0.2159,0.36195 0.2159,0.8255 0,0.48895 -0.2159,0.89535 -0.20955,0.40005 -0.5715,0.635 -0.36195,0.23495 -0.8128,0.23495 z m 0.0508,-0.254 q 0.33655,0 0.5334,-0.1905 0.19685,-0.1905 0.2794,-0.4953 0.0889,-0.3048 0.0889,-0.64135 0,-0.28575 -0.05715,-0.5588 -0.0508,-0.2794 -0.1651,-0.50165 -0.1143,-0.2286 -0.29845,-0.36195 -0.1778,-0.13335 -0.4318,-0.13335 -0.3302,0 -0.53975,0.1905 -0.20955,0.1905 -0.31115,0.4953 -0.09525,0.3048 -0.09525,0.65405 0,0.3937 0.10795,0.7493 0.10795,0.34925 0.3302,0.5715 0.22225,0.22225 0.5588,0.22225 z m 3.137952,0.254 q -0.3429,0 -0.57785,-0.127 -0.2286,-0.127 -0.34925,-0.4318 -0.1143,-0.3048 -0.1143,-0.8255 v -1.1303 q 0,-0.1016 0,-0.2032 0.0063,-0.1016 0.0254,-0.20955 -0.10795,0.006 -0.22225,0.0127 -0.10795,0 -0.2159,0.006 v -0.26035 h 0.19685 q 0.27305,0 0.3937,-0.0508 0.127,-0.0571 0.19685,-0.12065 h 0.18415 v 1.93675 q 0,0.5461 0.1524,0.81915 0.15875,0.2667 0.5334,0.26035 0.2413,-0.006 0.4572,-0.14605 0.22225,-0.14605 0.3556,-0.3429 v -1.63195 q 0,-0.1524 0.0063,-0.26035 0.0063,-0.1143 0.0254,-0.22225 -0.1143,0.006 -0.2286,0.0127 -0.1143,0 -0.2286,0.006 v -0.26035 h 0.19685 q 0.27305,0 0.3937,-0.0508 0.127,-0.0571 0.19685,-0.12065 h 0.18415 l -0.0063,2.4003 q 0,0.1016 -0.0063,0.28575 -0.0063,0.18415 -0.01905,0.31115 0.1143,-0.006 0.2286,-0.0127 0.1143,-0.006 0.2286,-0.0127 v 0.2667 h -0.90805 q -0.01905,-0.10795 -0.03175,-0.2032 -0.0063,-0.0953 -0.0127,-0.1778 -0.19685,0.19685 -0.47625,0.3429 -0.2794,0.1397 -0.5588,0.1397 z m 3.461809,0 q -0.3175,0 -0.56515,-0.0889 -0.24765,-0.0825 -0.4064,-0.1905 l 0.0254,0.22225 h -0.2667 l -0.0381,-1.0922 h 0.19685 q 0.0127,0.26035 0.14605,0.4699 0.13335,0.2032 0.3429,0.3175 0.20955,0.1143 0.45085,0.1143 0.1651,0 0.32385,-0.0508 0.15875,-0.0572 0.2667,-0.1651 0.10795,-0.1143 0.10795,-0.28575 0,-0.1778 -0.10795,-0.2921 -0.1016,-0.12065 -0.27305,-0.20955 -0.17145,-0.0889 -0.3683,-0.1651 -0.1905,-0.0762 -0.381,-0.15875 -0.1905,-0.0825 -0.3556,-0.19685 -0.15875,-0.1143 -0.254,-0.2794 -0.09525,-0.1651 -0.09525,-0.4064 0,-0.13335 0.0508,-0.2921 0.0508,-0.15875 0.17145,-0.29845 0.12065,-0.14605 0.3302,-0.23495 0.20955,-0.0952 0.5334,-0.0952 0.17145,0 0.381,0.0572 0.20955,0.0572 0.4064,0.2159 l -0.0127,-0.2413 h 0.2667 v 1.11125 h -0.2032 q -0.0127,-0.22225 -0.1016,-0.42545 -0.0889,-0.20955 -0.26035,-0.3429 -0.17145,-0.1397 -0.4445,-0.1397 -0.2921,0 -0.4572,0.14605 -0.1651,0.14605 -0.1651,0.33655 0,0.19685 0.12065,0.3302 0.127,0.127 0.32385,0.22225 0.19685,0.0952 0.4191,0.18415 0.2413,0.1016 0.4699,0.22225 0.2286,0.12065 0.37465,0.3048 0.14605,0.1778 0.14605,0.46355 0,0.3175 -0.1651,0.52705 -0.15875,0.20955 -0.41275,0.3048 -0.24765,0.1016 -0.5207,0.1016 z m 2.883954,0 q -0.43815,0 -0.79375,-0.2032 -0.34925,-0.20955 -0.55245,-0.5842 -0.2032,-0.381 -0.2032,-0.89535 0,-0.4445 0.19685,-0.83185 0.2032,-0.38735 0.56515,-0.6223 0.36195,-0.2413 0.8382,-0.2413 0.2667,0 0.4953,0.0889 0.23495,0.0825 0.41275,0.26035 0.1778,0.17145 0.2794,0.43815 0.1016,0.26035 0.1016,0.61595 l -2.2352,0.0381 q 0,0.4826 0.1016,0.8509 0.10795,0.36195 0.3429,0.56515 0.23495,0.19685 0.60325,0.19685 0.19685,0 0.40005,-0.0699 0.20955,-0.0699 0.38735,-0.1905 0.1778,-0.12065 0.28575,-0.2667 l 0.1524,0.127 q -0.17145,0.2667 -0.41275,0.42545 -0.2413,0.15875 -0.4953,0.2286 -0.254,0.0698 -0.4699,0.0698 z m -0.8763,-2.20345 h 1.61925 q 0,-0.2286 -0.06985,-0.43815 -0.0635,-0.2159 -0.2159,-0.34925 -0.1524,-0.1397 -0.40005,-0.1397 -0.3683,0 -0.61595,0.22225 -0.2413,0.2159 -0.3175,0.70485 z m 5.171017,2.20345 q -0.3175,0 -0.56515,-0.0889 -0.24765,-0.0825 -0.4064,-0.1905 l 0.0254,0.22225 h -0.2667 l -0.0381,-1.0922 h 0.19685 q 0.0127,0.26035 0.14605,0.4699 0.13335,0.2032 0.3429,0.3175 0.20955,0.1143 0.45085,0.1143 0.1651,0 0.32385,-0.0508 0.15875,-0.0572 0.2667,-0.1651 0.10795,-0.1143 0.10795,-0.28575 0,-0.1778 -0.10795,-0.2921 -0.1016,-0.12065 -0.27305,-0.20955 -0.17145,-0.0889 -0.3683,-0.1651 -0.1905,-0.0762 -0.381,-0.15875 -0.1905,-0.0825 -0.3556,-0.19685 -0.15875,-0.1143 -0.254,-0.2794 -0.09525,-0.1651 -0.09525,-0.4064 0,-0.13335 0.0508,-0.2921 0.0508,-0.15875 0.17145,-0.29845 0.12065,-0.14605 0.3302,-0.23495 0.20955,-0.0952 0.5334,-0.0952 0.17145,0 0.381,0.0572 0.20955,0.0572 0.4064,0.2159 l -0.0127,-0.2413 h 0.2667 v 1.11125 h -0.2032 q -0.0127,-0.22225 -0.1016,-0.42545 -0.0889,-0.20955 -0.26035,-0.3429 -0.17145,-0.1397 -0.4445,-0.1397 -0.2921,0 -0.4572,0.14605 -0.1651,0.14605 -0.1651,0.33655 0,0.19685 0.12065,0.3302 0.127,0.127 0.32385,0.22225 0.19685,0.0952 0.4191,0.18415 0.2413,0.1016 0.4699,0.22225 0.2286,0.12065 0.37465,0.3048 0.14605,0.1778 0.14605,0.46355 0,0.3175 -0.1651,0.52705 -0.15875,0.20955 -0.41275,0.3048 -0.24765,0.1016 -0.5207,0.1016 z m 3.385606,-0.2921 q 0.19685,0 0.27305,-0.0953 0.0762,-0.1016 0.0889,-0.27305 0.0127,-0.1778 0.0127,-0.4064 v -0.889 q 0,-0.5461 -0.1778,-0.81915 -0.17145,-0.27305 -0.5461,-0.2667 -0.23495,0.006 -0.46355,0.1143 -0.22225,0.10795 -0.36195,0.2794 v 1.87325 q 0,0.127 -0.0063,0.2286 -0.0063,0.0953 -0.0254,0.2032 0.1016,-0.006 0.19685,-0.006 0.1016,-0.006 0.2032,-0.0127 v 0.26035 h -1.2954 v -0.1905 q 0.19685,0 0.27305,-0.0953 0.0762,-0.1016 0.0889,-0.27305 0.01905,-0.1778 0.01905,-0.4064 v -3.00355 q 0,-0.1016 0,-0.1905 0.0063,-0.0953 0.01905,-0.22225 -0.1143,0.006 -0.2286,0.0127 -0.10795,0.006 -0.22225,0.0127 v -0.2667 q 0.2794,0 0.4318,-0.0254 0.15875,-0.0254 0.23495,-0.0635 0.08255,-0.0381 0.127,-0.0825 h 0.18415 v 1.93675 q 0.1397,-0.12065 0.31115,-0.20955 0.1778,-0.0952 0.36195,-0.1524 0.1905,-0.0572 0.3683,-0.0572 0.55245,0 0.79375,0.34925 0.24765,0.3429 0.254,1.07315 l 0.0063,1.1811 q 0,0.127 -0.0063,0.2286 0,0.0953 -0.01905,0.2032 0.1016,-0.006 0.19685,-0.006 0.1016,-0.006 0.2032,-0.0127 v 0.26035 h -1.2954 z m 3.010961,0.2921 q -0.43815,0 -0.79375,-0.2032 -0.34925,-0.20955 -0.55245,-0.5842 -0.2032,-0.381 -0.2032,-0.89535 0,-0.4445 0.19685,-0.83185 0.2032,-0.38735 0.56515,-0.6223 0.36195,-0.2413 0.8382,-0.2413 0.2667,0 0.4953,0.0889 0.23495,0.0825 0.41275,0.26035 0.1778,0.17145 0.2794,0.43815 0.1016,0.26035 0.1016,0.61595 l -2.2352,0.0381 q 0,0.4826 0.1016,0.8509 0.10795,0.36195 0.3429,0.56515 0.23495,0.19685 0.60325,0.19685 0.19685,0 0.40005,-0.0699 0.20955,-0.0699 0.38735,-0.1905 0.1778,-0.12065 0.28575,-0.2667 l 0.1524,0.127 q -0.17145,0.2667 -0.41275,0.42545 -0.2413,0.15875 -0.4953,0.2286 -0.254,0.0698 -0.4699,0.0698 z m -0.8763,-2.20345 h 1.61925 q 0,-0.2286 -0.06985,-0.43815 -0.0635,-0.2159 -0.2159,-0.34925 -0.1524,-0.1397 -0.40005,-0.1397 -0.3683,0 -0.61595,0.22225 -0.2413,0.2159 -0.3175,0.70485 z m 3.805771,1.91135 q 0.19685,0 0.27305,-0.0953 0.0762,-0.1016 0.0889,-0.27305 0.0127,-0.1778 0.0127,-0.4064 v -3.00355 q 0,-0.1016 0,-0.1905 0.0063,-0.0953 0.01905,-0.22225 -0.1143,0.006 -0.2286,0.0127 -0.10795,0.006 -0.22225,0.0127 v -0.2667 q 0.2794,0 0.4318,-0.0254 0.15875,-0.0254 0.23495,-0.0635 0.08255,-0.0381 0.127,-0.0825 h 0.18415 l 0.0063,4.12115 q 0,0.127 -0.0063,0.2286 -0.0063,0.0953 -0.0254,0.2032 0.1016,-0.006 0.19685,-0.006 0.1016,-0.006 0.2032,-0.0127 v 0.26035 h -1.2954 z m 1.499653,0 q 0.19685,0 0.27305,-0.0953 0.0762,-0.1016 0.0889,-0.27305 0.0127,-0.1778 0.0127,-0.4064 v -1.4478 q 0,-0.1016 0.0063,-0.1905 0.0063,-0.0952 0.01905,-0.22225 -0.1143,0.006 -0.2286,0.0127 -0.10795,0.006 -0.22225,0.0127 v -0.2667 q 0.2794,0 0.4318,-0.0254 0.1524,-0.0254 0.2286,-0.0635 0.08255,-0.0381 0.127,-0.0825 h 0.18415 v 2.5654 q 0,0.127 -0.0063,0.2286 0,0.0953 -0.01905,0.2032 0.1016,-0.006 0.19685,-0.006 0.1016,-0.006 0.2032,-0.0127 v 0.26035 h -1.2954 z m 0.6096,-3.67665 q -0.13335,0 -0.23495,-0.10795 -0.1016,-0.10795 -0.1016,-0.2667 0,-0.15875 0.1016,-0.2667 0.10795,-0.1143 0.2413,-0.1143 0.14605,0 0.2413,0.1143 0.1016,0.10795 0.1016,0.2667 0,0.15875 -0.10795,0.2667 -0.1016,0.10795 -0.2413,0.10795 z m 2.090209,3.8862 -0.90805,-2.0701 q -0.1016,-0.2413 -0.15875,-0.41275 -0.05715,-0.17145 -0.08255,-0.28575 -0.01905,-0.1143 -0.0254,-0.18415 l -0.27305,0.019 v -0.26035 h 1.1684 v 0.1905 q -0.1905,0 -0.24765,0.1016 -0.0508,0.0953 -0.0127,0.26035 0.0381,0.15875 0.1143,0.3429 l 0.48895,1.1176 q 0.0508,0.10795 0.09525,0.2286 0.0508,0.1143 0.09525,0.2413 h 0.0063 q 0.03175,-0.0952 0.06985,-0.2032 0.04445,-0.10795 0.0762,-0.20955 l 0.508,-1.39065 q 0.0508,-0.1524 0.10795,-0.2667 0.05715,-0.1143 0.08255,-0.17145 l -0.4064,0.019 v -0.26035 h 1.0033 v 0.1905 q -0.1397,0 -0.23495,0.0952 -0.09525,0.0953 -0.18415,0.28575 -0.08255,0.1905 -0.19685,0.47625 l -0.83185,2.1463 z m 3.214157,0.0825 q -0.43815,0 -0.79375,-0.2032 -0.34925,-0.20955 -0.55245,-0.5842 -0.2032,-0.381 -0.2032,-0.89535 0,-0.4445 0.19685,-0.83185 0.2032,-0.38735 0.56515,-0.6223 0.36195,-0.2413 0.8382,-0.2413 0.2667,0 0.4953,0.0889 0.23495,0.0825 0.41275,0.26035 0.1778,0.17145 0.2794,0.43815 0.1016,0.26035 0.1016,0.61595 l -2.2352,0.0381 q 0,0.4826 0.1016,0.8509 0.10795,0.36195 0.3429,0.56515 0.23495,0.19685 0.60325,0.19685 0.19685,0 0.40005,-0.0699 0.20955,-0.0699 0.38735,-0.1905 0.1778,-0.12065 0.28575,-0.2667 l 0.1524,0.127 q -0.17145,0.2667 -0.41275,0.42545 -0.2413,0.15875 -0.4953,0.2286 -0.254,0.0698 -0.4699,0.0698 z m -0.8763,-2.20345 h 1.61925 q 0,-0.2286 -0.06985,-0.43815 -0.0635,-0.2159 -0.2159,-0.34925 -0.1524,-0.1397 -0.40005,-0.1397 -0.3683,0 -0.61595,0.22225 -0.2413,0.2159 -0.3175,0.70485 z m 3.817412,2.20345 q -0.38735,0 -0.6985,-0.1905 -0.31115,-0.19685 -0.4953,-0.5588 -0.1778,-0.36195 -0.1778,-0.8509 0,-0.5207 0.20955,-0.92075 0.20955,-0.40005 0.57785,-0.62865 0.37465,-0.2286 0.84455,-0.2286 0.20955,0 0.41275,0.0572 0.20955,0.0508 0.3302,0.12065 v -0.86995 q 0,-0.1016 0,-0.1905 0.0063,-0.0953 0.01905,-0.22225 -0.1143,0.006 -0.2286,0.0127 -0.10795,0.006 -0.22225,0.0127 v -0.2667 q 0.2794,0 0.4318,-0.0254 0.1524,-0.0254 0.2286,-0.0635 0.08255,-0.0381 0.127,-0.0825 h 0.18415 v 4.12115 q 0,0.1016 -0.0063,0.2032 -0.0063,0.1016 -0.01905,0.2286 0.1143,-0.006 0.22225,-0.0127 0.1143,-0.006 0.2286,-0.0127 v 0.2667 h -0.90805 q -0.01905,-0.0952 -0.03175,-0.17145 -0.0063,-0.0825 -0.0127,-0.15875 -0.1778,0.19685 -0.43815,0.3175 -0.26035,0.1143 -0.57785,0.1143 z m 0.2286,-0.31115 q 0.20955,0 0.4191,-0.12065 0.2159,-0.12065 0.3556,-0.29845 -0.0063,-0.0762 -0.0063,-0.15875 0,-0.0889 0,-0.1905 l 0.0063,-1.8288 q -0.1524,-0.1143 -0.33655,-0.1651 -0.1778,-0.0572 -0.3683,-0.0572 -0.3175,0 -0.55245,0.18415 -0.23495,0.18415 -0.3556,0.51435 -0.12065,0.3302 -0.10795,0.7747 0.0127,0.38735 0.12065,0.69215 0.1143,0.3048 0.3175,0.4826 0.20955,0.17145 0.508,0.17145 z m 3.297765,0.0191 q 0.19685,0 0.27305,-0.0953 0.0762,-0.1016 0.0889,-0.27305 0.0127,-0.1778 0.0127,-0.4064 v -1.4478 q 0,-0.1016 0.006,-0.1905 0.006,-0.0952 0.0191,-0.22225 -0.1143,0.006 -0.2286,0.0127 -0.10795,0.006 -0.22225,0.0127 v -0.2667 q 0.2794,0 0.4318,-0.0254 0.1524,-0.0254 0.2286,-0.0635 0.0825,-0.0381 0.127,-0.0825 h 0.18415 v 2.5654 q 0,0.127 -0.006,0.2286 0,0.0953 -0.0191,0.2032 0.1016,-0.006 0.19685,-0.006 0.1016,-0.006 0.2032,-0.0127 v 0.26035 h -1.2954 z m 0.6096,-3.67665 q -0.13335,0 -0.23495,-0.10795 -0.1016,-0.10795 -0.1016,-0.2667 0,-0.15875 0.1016,-0.2667 0.10795,-0.1143 0.2413,-0.1143 0.14605,0 0.2413,0.1143 0.1016,0.10795 0.1016,0.2667 0,0.15875 -0.10795,0.2667 -0.1016,0.10795 -0.2413,0.10795 z m 0.88371,3.86715 v -0.1905 q 0.19685,0 0.27305,-0.0953 0.0762,-0.1016 0.0889,-0.27305 0.0127,-0.1778 0.0127,-0.4064 l 0.006,-1.4478 q 0,-0.1016 0,-0.2032 0.006,-0.1016 0.0254,-0.20955 -0.1143,0.006 -0.2286,0.0127 -0.10795,0.006 -0.22225,0.0127 v -0.2667 q 0.2794,0 0.4191,-0.0254 0.14605,-0.0254 0.2159,-0.0635 0.0699,-0.0381 0.1143,-0.0825 h 0.18415 q 0.006,0.0444 0.006,0.1016 0.006,0.0572 0.0127,0.127 0.006,0.0699 0.006,0.15875 0.1397,-0.12065 0.3048,-0.2159 0.17145,-0.0952 0.3556,-0.1524 0.1905,-0.0572 0.37465,-0.0572 0.55245,0 0.80645,0.34925 0.254,0.3429 0.254,1.07315 v 1.1811 q 0,0.127 -0.006,0.2286 0,0.0953 -0.019,0.2032 0.1016,-0.006 0.19685,-0.006 0.1016,-0.006 0.2032,-0.0127 v 0.26035 h -1.2954 v -0.1905 q 0.19685,0 0.27305,-0.0953 0.0762,-0.1016 0.0889,-0.27305 0.0127,-0.1778 0.0127,-0.4064 v -0.889 q -0.006,-0.5461 -0.18415,-0.8255 -0.17145,-0.2794 -0.5461,-0.27305 -0.2286,0.006 -0.45085,0.12065 -0.2159,0.1143 -0.36195,0.2921 0.006,0.0508 0.006,0.1143 0,0.0635 0,0.13335 l -0.006,1.61925 q 0,0.127 -0.006,0.2286 0,0.0953 -0.019,0.2032 0.1016,-0.006 0.19685,-0.006 0.1016,-0.006 0.2032,-0.0127 v 0.26035 z m 6.03462,0.019 -0.83185,-2.4384 q -0.0444,-0.13335 -0.0825,-0.2286 -0.0318,-0.0952 -0.0508,-0.1651 -0.0191,-0.0699 -0.0318,-0.12065 l -0.33655,0.019 v -0.26035 h 1.3462 v 0.1905 q -0.28575,0.006 -0.3175,0.19685 -0.0254,0.18415 0.0762,0.48895 l 0.2921,0.889 q 0.0508,0.1524 0.1016,0.31115 0.0508,0.1524 0.1016,0.3048 0.0572,-0.17145 0.1143,-0.3429 0.0635,-0.1778 0.12065,-0.3556 l 0.56515,-1.68275 h 0.26035 l 0.64135,1.84785 q 0.0508,0.1397 0.1016,0.28575 0.0508,0.14605 0.1016,0.2921 0.0508,-0.1397 0.0953,-0.27305 0.0508,-0.1397 0.0952,-0.2794 l 0.4191,-1.2065 q 0.0444,-0.127 0.0889,-0.2413 0.0445,-0.1143 0.1016,-0.18415 l -0.3683,0.019 v -0.26035 h 1.1049 v 0.1905 q -0.1651,0.006 -0.27305,0.0445 -0.1016,0.0381 -0.17145,0.1016 -0.0699,0.0635 -0.1143,0.1524 -0.0444,0.0889 -0.0825,0.2032 l -0.9144,2.5019 h -0.254 l -0.60325,-1.73355 q -0.0381,-0.1143 -0.0762,-0.22225 -0.0381,-0.1143 -0.0762,-0.22225 -0.0381,-0.1143 -0.0762,-0.22225 -0.0381,0.10795 -0.0762,0.22225 -0.0381,0.10795 -0.0762,0.22225 -0.0381,0.10795 -0.0762,0.22225 l -0.5969,1.73355 z m 5.57001,-0.019 q -0.019,-0.10795 -0.0254,-0.1905 -0.006,-0.0825 -0.0191,-0.17145 -0.2159,0.2159 -0.4699,0.3429 -0.24765,0.12065 -0.52705,0.12065 -0.4826,0 -0.71755,-0.2159 -0.23495,-0.22225 -0.23495,-0.53975 0,-0.2921 0.1778,-0.50165 0.18415,-0.2159 0.4699,-0.34925 0.2921,-0.1397 0.62865,-0.2032 0.3429,-0.0699 0.6604,-0.0635 v -0.3937 q 0,-0.22225 -0.0381,-0.4191 -0.0381,-0.19685 -0.1651,-0.32385 -0.127,-0.127 -0.4064,-0.13335 -0.18415,-0.006 -0.381,0.0699 -0.1905,0.0762 -0.2794,0.26035 0.0508,0.0508 0.0635,0.12065 0.0191,0.0635 0.0191,0.12065 0,0.0762 -0.0635,0.1778 -0.0635,0.0952 -0.22225,0.0889 -0.13335,0 -0.2032,-0.0889 -0.0699,-0.0952 -0.0699,-0.22225 0,-0.2159 0.15875,-0.38735 0.1651,-0.17145 0.45085,-0.27305 0.28575,-0.1016 0.6477,-0.1016 0.5334,0 0.7874,0.28575 0.254,0.2794 0.24765,0.889 0,0.23495 0,0.47625 0,0.23495 -0.006,0.47625 0,0.23495 0,0.47625 0,0.1016 -0.006,0.2032 -0.006,0.1016 -0.0191,0.2286 0.1143,-0.006 0.22225,-0.0127 0.1143,-0.006 0.2286,-0.0127 v 0.2667 z m -0.0571,-1.55575 q -0.2159,0.006 -0.4572,0.0572 -0.23495,0.0444 -0.43815,0.1397 -0.19685,0.0953 -0.32385,0.254 -0.12065,0.1524 -0.1143,0.37465 0.0127,0.23495 0.1524,0.3556 0.14605,0.1143 0.3429,0.1143 0.26035,0 0.45085,-0.0952 0.19685,-0.1016 0.38735,-0.2794 -0.006,-0.0699 -0.006,-0.1524 0,-0.0825 0,-0.17145 0,-0.0318 0,-0.2032 0.006,-0.17145 0.006,-0.3937 z m 2.41407,1.65735 q -0.3175,0 -0.56515,-0.0889 -0.24765,-0.0825 -0.4064,-0.1905 l 0.0254,0.22225 h -0.2667 l -0.0381,-1.0922 h 0.19685 q 0.0127,0.26035 0.14605,0.4699 0.13335,0.2032 0.3429,0.3175 0.20955,0.1143 0.45085,0.1143 0.1651,0 0.32385,-0.0508 0.15875,-0.0572 0.2667,-0.1651 0.10795,-0.1143 0.10795,-0.28575 0,-0.1778 -0.10795,-0.2921 -0.1016,-0.12065 -0.27305,-0.20955 -0.17145,-0.0889 -0.3683,-0.1651 -0.1905,-0.0762 -0.381,-0.15875 -0.1905,-0.0825 -0.3556,-0.19685 -0.15875,-0.1143 -0.254,-0.2794 -0.0953,-0.1651 -0.0953,-0.4064 0,-0.13335 0.0508,-0.2921 0.0508,-0.15875 0.17145,-0.29845 0.12065,-0.14605 0.3302,-0.23495 0.20955,-0.0952 0.5334,-0.0952 0.17145,0 0.381,0.0572 0.20955,0.0572 0.4064,0.2159 l -0.0127,-0.2413 h 0.2667 v 1.11125 h -0.2032 q -0.0127,-0.22225 -0.1016,-0.42545 -0.0889,-0.20955 -0.26035,-0.3429 -0.17145,-0.1397 -0.4445,-0.1397 -0.2921,0 -0.4572,0.14605 -0.1651,0.14605 -0.1651,0.33655 0,0.19685 0.12065,0.3302 0.127,0.127 0.32385,0.22225 0.19685,0.0952 0.4191,0.18415 0.2413,0.1016 0.4699,0.22225 0.2286,0.12065 0.37465,0.3048 0.14605,0.1778 0.14605,0.46355 0,0.3175 -0.1651,0.52705 -0.15875,0.20955 -0.41275,0.3048 -0.24765,0.1016 -0.5207,0.1016 z m 2.66911,1.51765 v -0.1905 q 0.19685,0 0.27305,-0.1016 0.0762,-0.0953 0.0889,-0.27305 0.0127,-0.17145 0.0127,-0.40005 l 0.0127,-3.06705 q 0,-0.1016 0,-0.2032 0.006,-0.1016 0.0254,-0.20955 -0.1143,0.006 -0.2286,0.0127 -0.10795,0.006 -0.22225,0.0127 v -0.2667 q 0.2794,0 0.4191,-0.0254 0.14605,-0.0254 0.20955,-0.0635 0.0698,-0.0381 0.1143,-0.0825 h 0.1905 q 0.006,0.0635 0.0127,0.1524 0.006,0.0825 0.0127,0.1905 0.1905,-0.17145 0.45085,-0.27305 0.2667,-0.10795 0.5334,-0.10795 0.3683,0 0.6858,0.1905 0.3175,0.1905 0.51435,0.5461 0.19685,0.34925 0.19685,0.8382 0,0.53975 -0.2286,0.94615 -0.22225,0.4064 -0.59055,0.635 -0.3683,0.22225 -0.8001,0.22225 -0.22225,0 -0.41275,-0.0571 -0.18415,-0.0508 -0.34925,-0.1524 v 1.0541 q 0,0.127 -0.006,0.22225 0,0.1016 -0.0191,0.20955 0.1016,-0.006 0.19685,-0.0127 0.1016,0 0.2032,-0.006 v 0.26035 z m 1.67005,-1.77165 q 0.3048,0 0.5207,-0.18415 0.22225,-0.1905 0.33655,-0.51435 0.12065,-0.3302 0.12065,-0.7493 0,-0.3429 -0.1016,-0.65405 -0.0953,-0.3175 -0.31115,-0.51435 -0.20955,-0.19685 -0.5588,-0.19685 -0.2159,0 -0.4191,0.10795 -0.19685,0.1016 -0.3302,0.24765 0,0.0254 0,0.0762 0.006,0.0445 0.006,0.1651 0,0.1143 0,0.34925 0,0.2286 -0.006,0.6223 0,0.3937 0,0.99695 0.15875,0.12065 0.3429,0.18415 0.1905,0.0635 0.40005,0.0635 z m 3.81741,0.1524 q -0.019,-0.10795 -0.0254,-0.1905 -0.006,-0.0825 -0.019,-0.17145 -0.2159,0.2159 -0.4699,0.3429 -0.24765,0.12065 -0.52705,0.12065 -0.4826,0 -0.71755,-0.2159 -0.23495,-0.22225 -0.23495,-0.53975 0,-0.2921 0.1778,-0.50165 0.18415,-0.2159 0.4699,-0.34925 0.2921,-0.1397 0.62865,-0.2032 0.3429,-0.0699 0.6604,-0.0635 v -0.3937 q 0,-0.22225 -0.0381,-0.4191 -0.0381,-0.19685 -0.1651,-0.32385 -0.127,-0.127 -0.4064,-0.13335 -0.18415,-0.006 -0.381,0.0699 -0.1905,0.0762 -0.2794,0.26035 0.0508,0.0508 0.0635,0.12065 0.0191,0.0635 0.0191,0.12065 0,0.0762 -0.0635,0.1778 -0.0635,0.0952 -0.22225,0.0889 -0.13335,0 -0.2032,-0.0889 -0.0699,-0.0952 -0.0699,-0.22225 0,-0.2159 0.15875,-0.38735 0.1651,-0.17145 0.45085,-0.27305 0.28575,-0.1016 0.6477,-0.1016 0.5334,0 0.7874,0.28575 0.254,0.2794 0.24765,0.889 0,0.23495 0,0.47625 0,0.23495 -0.006,0.47625 0,0.23495 0,0.47625 0,0.1016 -0.006,0.2032 -0.006,0.1016 -0.0191,0.2286 0.1143,-0.006 0.22225,-0.0127 0.1143,-0.006 0.2286,-0.0127 v 0.2667 z m -0.0571,-1.55575 q -0.2159,0.006 -0.4572,0.0572 -0.23495,0.0444 -0.43815,0.1397 -0.19685,0.0953 -0.32385,0.254 -0.12065,0.1524 -0.1143,0.37465 0.0127,0.23495 0.1524,0.3556 0.14605,0.1143 0.3429,0.1143 0.26035,0 0.45085,-0.0952 0.19685,-0.1016 0.38735,-0.2794 -0.006,-0.0699 -0.006,-0.1524 0,-0.0825 0,-0.17145 0,-0.0318 0,-0.2032 0.006,-0.17145 0.006,-0.3937 z m 1.11231,1.36525 q 0.19685,0 0.27305,-0.0953 0.0762,-0.1016 0.0889,-0.27305 0.0127,-0.1778 0.0127,-0.4064 v -1.4478 q 0,-0.1016 0,-0.2032 0.006,-0.1016 0.0254,-0.20955 -0.1143,0.006 -0.2286,0.0127 -0.10795,0 -0.22225,0.006 v -0.26035 h 0.19685 q 0.27305,0 0.37465,-0.0508 0.10795,-0.0571 0.1778,-0.12065 h 0.18415 q 0.0127,0.1016 0.0191,0.254 0.006,0.14605 0.0127,0.37465 0.0953,-0.15875 0.26035,-0.31115 0.1651,-0.1524 0.3683,-0.254 0.20955,-0.1016 0.43815,-0.1016 0.1778,0 0.31115,0.0952 0.13335,0.0953 0.13335,0.3048 0,0.0508 -0.0318,0.127 -0.0318,0.0699 -0.1016,0.127 -0.0699,0.0508 -0.18415,0.0508 -0.1397,-0.006 -0.22225,-0.10795 -0.0825,-0.10795 -0.0635,-0.24765 -0.15875,-0.006 -0.3302,0.0825 -0.1651,0.0889 -0.31115,0.24765 -0.14605,0.1524 -0.26035,0.36195 l 0.006,1.5621 q 0,0.127 -0.006,0.2286 0,0.0953 -0.019,0.2032 0.1016,-0.006 0.19685,-0.006 0.1016,-0.006 0.2032,-0.0127 v 0.26035 h -1.30175 z m 3.69676,0.2921 q -0.14605,0 -0.29845,-0.0444 -0.1524,-0.0381 -0.28575,-0.15875 -0.127,-0.12065 -0.2032,-0.34925 -0.0762,-0.23495 -0.0762,-0.61595 l 0.0127,-1.8415 -0.48895,0.006 v -0.27305 q 0.1651,-0.006 0.33655,-0.12065 0.17145,-0.12065 0.3048,-0.32385 0.1397,-0.2032 0.1905,-0.4445 h 0.2159 v 0.889 h 1.0668 v 0.24765 l -1.0668,0.0127 -0.0127,1.7653 q 0,0.28575 0.0445,0.48895 0.0508,0.19685 0.15875,0.29845 0.10795,0.1016 0.2794,0.1016 0.1778,0 0.3302,-0.1016 0.15875,-0.1016 0.2794,-0.2794 l 0.17145,0.1397 q -0.1397,0.20955 -0.2794,0.3302 -0.13335,0.12065 -0.26035,0.1778 -0.127,0.0635 -0.23495,0.0762 -0.10795,0.019 -0.18415,0.019 z m 3.92642,0 q -0.4445,0 -0.80645,-0.2032 -0.36195,-0.20955 -0.57785,-0.5715 -0.20955,-0.3683 -0.20955,-0.8382 0,-0.50165 0.20955,-0.9017 0.20955,-0.40005 0.5715,-0.62865 0.36195,-0.23495 0.8128,-0.23495 0.4445,0 0.80645,0.2159 0.36195,0.20955 0.57785,0.5715 0.2159,0.36195 0.2159,0.8255 0,0.48895 -0.2159,0.89535 -0.20955,0.40005 -0.5715,0.635 -0.36195,0.23495 -0.8128,0.23495 z m 0.0508,-0.254 q 0.33655,0 0.5334,-0.1905 0.19685,-0.1905 0.2794,-0.4953 0.0889,-0.3048 0.0889,-0.64135 0,-0.28575 -0.0571,-0.5588 -0.0508,-0.2794 -0.1651,-0.50165 -0.1143,-0.2286 -0.29845,-0.36195 -0.1778,-0.13335 -0.4318,-0.13335 -0.3302,0 -0.53975,0.1905 -0.20955,0.1905 -0.31115,0.4953 -0.0953,0.3048 -0.0953,0.65405 0,0.3937 0.10795,0.7493 0.10795,0.34925 0.3302,0.5715 0.22225,0.22225 0.5588,0.22225 z m 2.16641,-3.15595 q 0,-0.70485 0.254,-1.11125 0.26035,-0.4064 0.889,-0.4064 0.1397,0 0.2921,0.0508 0.15875,0.0444 0.27305,0.1524 0.1143,0.1016 0.1143,0.2667 0,0.12065 -0.0699,0.2032 -0.0635,0.0825 -0.1905,0.0825 -0.1524,0.006 -0.2159,-0.0889 -0.0572,-0.1016 -0.0572,-0.17145 0,-0.0381 0.006,-0.0762 0.006,-0.0381 0.0254,-0.0825 -0.0444,-0.0571 -0.127,-0.0825 -0.0762,-0.0254 -0.14605,-0.0254 -0.19685,0 -0.3048,0.1143 -0.10795,0.1143 -0.1524,0.28575 -0.0445,0.17145 -0.0445,0.3556 v 0.66675 h 0.85725 v 0.24765 l -0.85725,0.019 0.006,2.2352 q 0,0.127 -0.006,0.2286 0,0.0953 -0.019,0.2032 0.1016,-0.006 0.19685,-0.006 0.1016,-0.006 0.2032,-0.0127 v 0.26035 h -1.2954 v -0.1905 q 0.19685,0 0.27305,-0.0953 0.0762,-0.1016 0.0889,-0.27305 0.0127,-0.1778 0.0127,-0.4064 l -0.006,-1.93675 -0.5207,0.0127 v -0.28575 h 0.5207 z m 4.02801,3.40995 q -0.14605,0 -0.29845,-0.0444 -0.1524,-0.0381 -0.28575,-0.15875 -0.127,-0.12065 -0.2032,-0.34925 -0.0762,-0.23495 -0.0762,-0.61595 l 0.0127,-1.8415 -0.48895,0.006 v -0.27305 q 0.1651,-0.006 0.33655,-0.12065 0.17145,-0.12065 0.3048,-0.32385 0.1397,-0.2032 0.1905,-0.4445 h 0.2159 v 0.889 h 1.0668 v 0.24765 l -1.0668,0.0127 -0.0127,1.7653 q 0,0.28575 0.0445,0.48895 0.0508,0.19685 0.15875,0.29845 0.10795,0.1016 0.2794,0.1016 0.1778,0 0.3302,-0.1016 0.15875,-0.1016 0.2794,-0.2794 l 0.17145,0.1397 q -0.1397,0.20955 -0.2794,0.3302 -0.13335,0.12065 -0.26035,0.1778 -0.127,0.0635 -0.23495,0.0762 -0.10795,0.019 -0.18415,0.019 z m 3.01095,-0.2921 q 0.19685,0 0.27305,-0.0953 0.0762,-0.1016 0.0889,-0.27305 0.0127,-0.1778 0.0127,-0.4064 v -0.889 q 0,-0.5461 -0.1778,-0.81915 -0.17145,-0.27305 -0.5461,-0.2667 -0.23495,0.006 -0.46355,0.1143 -0.22225,0.10795 -0.36195,0.2794 v 1.87325 q 0,0.127 -0.006,0.2286 -0.006,0.0953 -0.0254,0.2032 0.1016,-0.006 0.19685,-0.006 0.1016,-0.006 0.2032,-0.0127 v 0.26035 h -1.2954 v -0.1905 q 0.19685,0 0.27305,-0.0953 0.0762,-0.1016 0.0889,-0.27305 0.019,-0.1778 0.019,-0.4064 v -3.00355 q 0,-0.1016 0,-0.1905 0.006,-0.0953 0.0191,-0.22225 -0.1143,0.006 -0.2286,0.0127 -0.10795,0.006 -0.22225,0.0127 v -0.2667 q 0.2794,0 0.4318,-0.0254 0.15875,-0.0254 0.23495,-0.0635 0.0826,-0.0381 0.127,-0.0825 h 0.18415 v 1.93675 q 0.1397,-0.12065 0.31115,-0.20955 0.1778,-0.0952 0.36195,-0.1524 0.1905,-0.0572 0.3683,-0.0572 0.55245,0 0.79375,0.34925 0.24765,0.3429 0.254,1.07315 l 0.006,1.1811 q 0,0.127 -0.006,0.2286 0,0.0953 -0.019,0.2032 0.1016,-0.006 0.19685,-0.006 0.1016,-0.006 0.2032,-0.0127 v 0.26035 h -1.2954 z m 3.01096,0.2921 q -0.43815,0 -0.79375,-0.2032 -0.34925,-0.20955 -0.55245,-0.5842 -0.2032,-0.381 -0.2032,-0.89535 0,-0.4445 0.19685,-0.83185 0.2032,-0.38735 0.56515,-0.6223 0.36195,-0.2413 0.8382,-0.2413 0.2667,0 0.4953,0.0889 0.23495,0.0825 0.41275,0.26035 0.1778,0.17145 0.2794,0.43815 0.1016,0.26035 0.1016,0.61595 l -2.2352,0.0381 q 0,0.4826 0.1016,0.8509 0.10795,0.36195 0.3429,0.56515 0.23495,0.19685 0.60325,0.19685 0.19685,0 0.40005,-0.0699 0.20955,-0.0699 0.38735,-0.1905 0.1778,-0.12065 0.28575,-0.2667 l 0.1524,0.127 q -0.17145,0.2667 -0.41275,0.42545 -0.2413,0.15875 -0.4953,0.2286 -0.254,0.0698 -0.4699,0.0698 z m -0.8763,-2.20345 h 1.61925 q 0,-0.2286 -0.0699,-0.43815 -0.0635,-0.2159 -0.2159,-0.34925 -0.1524,-0.1397 -0.40005,-0.1397 -0.3683,0 -0.61595,0.22225 -0.2413,0.2159 -0.3175,0.70485 z m 5.41867,2.20345 q -0.42545,0 -0.7874,-0.1905 -0.3556,-0.19685 -0.5715,-0.5588 -0.20955,-0.3683 -0.20955,-0.88265 0,-0.3302 0.12065,-0.64135 0.12065,-0.31115 0.33655,-0.5588 0.22225,-0.254 0.52705,-0.40005 0.3048,-0.14605 0.6731,-0.14605 0.3556,0 0.61595,0.10795 0.2667,0.10795 0.41275,0.28575 0.14605,0.1778 0.14605,0.38735 0,0.1397 -0.0762,0.2413 -0.0762,0.0952 -0.22225,0.0952 -0.15875,0.006 -0.2286,-0.0952 -0.0635,-0.10795 -0.0635,-0.1905 0,-0.0635 0.019,-0.127 0.0191,-0.0698 0.0762,-0.127 -0.0508,-0.1524 -0.1778,-0.22225 -0.127,-0.0762 -0.2667,-0.0952 -0.13335,-0.0254 -0.22225,-0.0254 -0.4318,0 -0.73025,0.34925 -0.2921,0.3429 -0.2921,1.0033 0,0.42545 0.13335,0.75565 0.1397,0.3302 0.38735,0.5207 0.24765,0.18415 0.5715,0.18415 0.29845,0 0.5715,-0.15875 0.27305,-0.15875 0.42545,-0.38735 l 0.1651,0.127 q -0.1651,0.2667 -0.40005,0.4318 -0.2286,0.1651 -0.47625,0.2413 -0.2413,0.0762 -0.4572,0.0762 z m 1.53775,-0.2921 q 0.19685,0 0.27305,-0.0953 0.0762,-0.1016 0.0889,-0.27305 0.0127,-0.1778 0.0127,-0.4064 v -1.4478 q 0,-0.1016 0.006,-0.1905 0.006,-0.0952 0.019,-0.22225 -0.1143,0.006 -0.2286,0.0127 -0.10795,0.006 -0.22225,0.0127 v -0.2667 q 0.2794,0 0.4318,-0.0254 0.1524,-0.0254 0.2286,-0.0635 0.0825,-0.0381 0.127,-0.0825 h 0.18415 v 2.5654 q 0,0.127 -0.006,0.2286 0,0.0953 -0.019,0.2032 0.1016,-0.006 0.19685,-0.006 0.1016,-0.006 0.2032,-0.0127 v 0.26035 h -1.2954 z m 0.6096,-3.67665 q -0.13335,0 -0.23495,-0.10795 -0.1016,-0.10795 -0.1016,-0.2667 0,-0.15875 0.1016,-0.2667 0.10795,-0.1143 0.2413,-0.1143 0.14605,0 0.2413,0.1143 0.1016,0.10795 0.1016,0.2667 0,0.15875 -0.10795,0.2667 -0.1016,0.10795 -0.2413,0.10795 z m 2.17912,3.96875 q -0.14605,0 -0.29845,-0.0444 -0.1524,-0.0381 -0.28575,-0.15875 -0.127,-0.12065 -0.2032,-0.34925 -0.0762,-0.23495 -0.0762,-0.61595 l 0.0127,-1.8415 -0.48895,0.006 v -0.27305 q 0.1651,-0.006 0.33655,-0.12065 0.17145,-0.12065 0.3048,-0.32385 0.1397,-0.2032 0.1905,-0.4445 h 0.2159 v 0.889 h 1.0668 v 0.24765 l -1.0668,0.0127 -0.0127,1.7653 q 0,0.28575 0.0445,0.48895 0.0508,0.19685 0.15875,0.29845 0.10795,0.1016 0.2794,0.1016 0.1778,0 0.3302,-0.1016 0.15875,-0.1016 0.2794,-0.2794 l 0.17145,0.1397 q -0.1397,0.20955 -0.2794,0.3302 -0.13335,0.12065 -0.26035,0.1778 -0.127,0.0635 -0.23495,0.0762 -0.10795,0.019 -0.18415,0.019 z m 1.47426,1.61925 q -0.19685,0 -0.33655,-0.0953 -0.1397,-0.0952 -0.1397,-0.2921 0,-0.1143 0.0762,-0.20955 0.0762,-0.0952 0.19685,-0.0952 0.1524,-0.006 0.2032,0.0952 0.0572,0.1016 0.0572,0.1778 0,0.019 0,0.0381 0,0.0254 -0.006,0.0508 0.0191,0.0127 0.0699,0.0127 0.0762,0 0.1651,-0.0635 0.0889,-0.0635 0.15875,-0.18415 0.0825,-0.1397 0.1905,-0.4191 0.1143,-0.2794 0.254,-0.66675 l -0.9906,-2.1209 q -0.1651,-0.3556 -0.2413,-0.56515 -0.0699,-0.20955 -0.0952,-0.31115 l -0.3048,0.0127 v -0.26035 h 1.31445 v 0.1905 h -0.0254 q -0.2667,0.019 -0.2921,0.2032 -0.0254,0.1778 0.14605,0.5461 l 0.74295,1.59385 q 0.14605,-0.4064 0.2794,-0.8001 0.13335,-0.40005 0.2667,-0.79375 0.0508,-0.1397 0.1016,-0.28575 0.0572,-0.1524 0.10795,-0.2667 0.0571,-0.12065 0.1016,-0.1524 l -0.43815,0.0254 v -0.26035 h 0.99695 v 0.1905 q -0.23495,0.0889 -0.3556,0.29845 -0.1143,0.2032 -0.23495,0.52705 l -0.79375,2.21615 q -0.1905,0.5334 -0.34925,0.9017 -0.15875,0.37465 -0.34925,0.56515 -0.1905,0.19685 -0.47625,0.19685 z m 5.04401,-1.7018 -0.83185,-2.4384 q -0.0444,-0.13335 -0.0825,-0.2286 -0.0317,-0.0952 -0.0508,-0.1651 -0.0191,-0.0699 -0.0318,-0.12065 l -0.33655,0.019 v -0.26035 h 1.3462 v 0.1905 q -0.28575,0.006 -0.3175,0.19685 -0.0254,0.18415 0.0762,0.48895 l 0.2921,0.889 q 0.0508,0.1524 0.1016,0.31115 0.0508,0.1524 0.1016,0.3048 0.0572,-0.17145 0.1143,-0.3429 0.0635,-0.1778 0.12065,-0.3556 l 0.56515,-1.68275 h 0.26035 l 0.64135,1.84785 q 0.0508,0.1397 0.1016,0.28575 0.0508,0.14605 0.1016,0.2921 0.0508,-0.1397 0.0952,-0.27305 0.0508,-0.1397 0.0952,-0.2794 l 0.4191,-1.2065 q 0.0444,-0.127 0.0889,-0.2413 0.0444,-0.1143 0.1016,-0.18415 l -0.3683,0.019 v -0.26035 h 1.1049 v 0.1905 q -0.1651,0.006 -0.27305,0.0445 -0.1016,0.0381 -0.17145,0.1016 -0.0699,0.0635 -0.1143,0.1524 -0.0445,0.0889 -0.0826,0.2032 l -0.9144,2.5019 h -0.254 l -0.60325,-1.73355 q -0.0381,-0.1143 -0.0762,-0.22225 -0.0381,-0.1143 -0.0762,-0.22225 -0.0381,-0.1143 -0.0762,-0.22225 -0.0381,0.10795 -0.0762,0.22225 -0.0381,0.10795 -0.0762,0.22225 -0.0381,0.10795 -0.0762,0.22225 l -0.5969,1.73355 z m 5.57002,-0.019 q -0.019,-0.10795 -0.0254,-0.1905 -0.006,-0.0825 -0.019,-0.17145 -0.2159,0.2159 -0.4699,0.3429 -0.24765,0.12065 -0.52705,0.12065 -0.4826,0 -0.71755,-0.2159 -0.23495,-0.22225 -0.23495,-0.53975 0,-0.2921 0.1778,-0.50165 0.18415,-0.2159 0.4699,-0.34925 0.2921,-0.1397 0.62865,-0.2032 0.3429,-0.0699 0.6604,-0.0635 v -0.3937 q 0,-0.22225 -0.0381,-0.4191 -0.0381,-0.19685 -0.1651,-0.32385 -0.127,-0.127 -0.4064,-0.13335 -0.18415,-0.006 -0.381,0.0699 -0.1905,0.0762 -0.2794,0.26035 0.0508,0.0508 0.0635,0.12065 0.019,0.0635 0.019,0.12065 0,0.0762 -0.0635,0.1778 -0.0635,0.0952 -0.22225,0.0889 -0.13335,0 -0.2032,-0.0889 -0.0699,-0.0952 -0.0699,-0.22225 0,-0.2159 0.15875,-0.38735 0.1651,-0.17145 0.45085,-0.27305 0.28575,-0.1016 0.6477,-0.1016 0.5334,0 0.7874,0.28575 0.254,0.2794 0.24765,0.889 0,0.23495 0,0.47625 0,0.23495 -0.006,0.47625 0,0.23495 0,0.47625 0,0.1016 -0.006,0.2032 -0.006,0.1016 -0.0191,0.2286 0.1143,-0.006 0.22225,-0.0127 0.1143,-0.006 0.2286,-0.0127 v 0.2667 z m -0.0571,-1.55575 q -0.2159,0.006 -0.4572,0.0572 -0.23495,0.0444 -0.43815,0.1397 -0.19685,0.0953 -0.32385,0.254 -0.12065,0.1524 -0.1143,0.37465 0.0127,0.23495 0.1524,0.3556 0.14605,0.1143 0.3429,0.1143 0.26035,0 0.45085,-0.0952 0.19685,-0.1016 0.38735,-0.2794 -0.006,-0.0699 -0.006,-0.1524 0,-0.0825 0,-0.17145 0,-0.0318 0,-0.2032 0.006,-0.17145 0.006,-0.3937 z m 1.04881,1.36525 q 0.19685,0 0.27305,-0.0953 0.0762,-0.1016 0.0889,-0.27305 0.0127,-0.1778 0.0127,-0.4064 v -3.00355 q 0,-0.1016 0,-0.1905 0.006,-0.0953 0.0191,-0.22225 -0.1143,0.006 -0.2286,0.0127 -0.10795,0.006 -0.22225,0.0127 v -0.2667 q 0.2794,0 0.4318,-0.0254 0.15875,-0.0254 0.23495,-0.0635 0.0826,-0.0381 0.127,-0.0825 h 0.18415 l 0.006,4.12115 q 0,0.127 -0.006,0.2286 -0.006,0.0953 -0.0254,0.2032 0.1016,-0.006 0.19685,-0.006 0.1016,-0.006 0.2032,-0.0127 v 0.26035 h -1.2954 z m 1.43616,0 q 0.19685,0 0.27305,-0.0953 0.0762,-0.1016 0.0889,-0.27305 0.0127,-0.1778 0.0127,-0.4064 v -3.00355 q 0,-0.1016 0,-0.1905 0.006,-0.0953 0.0191,-0.22225 -0.1143,0.006 -0.2286,0.0127 -0.10795,0.006 -0.22225,0.0127 v -0.2667 q 0.2794,0 0.4318,-0.0254 0.15875,-0.0254 0.23495,-0.0635 0.0826,-0.0381 0.127,-0.0825 h 0.18415 l 0.006,4.12115 q 0,0.127 -0.006,0.2286 -0.006,0.0953 -0.0254,0.2032 0.1016,-0.006 0.19685,-0.006 0.1016,-0.006 0.2032,-0.0127 v 0.26035 h -1.2954 z m 1.99494,0.2921 q -0.14605,0 -0.26035,-0.1143 -0.10795,-0.12065 -0.10795,-0.2921 0,-0.17145 0.1143,-0.2921 0.1143,-0.12065 0.26035,-0.12065 0.15875,0 0.26035,0.12065 0.10795,0.12065 0.10795,0.2921 0,0.17145 -0.1143,0.2921 -0.1143,0.1143 -0.26035,0.1143 z"
         id="path8"
         style="fill:#ffffff" />
    </g>
  </g>
</svg>
